<?xml version="1.0" encoding="UTF-8"?>
<svg xmlns="http://www.w3.org/2000/svg" id="a" width="865.76" height="682.89" viewBox="0 0 865.76 682.89">
  <g>
    <g>
      <path d="M463.45,598.34l-246.35,.12h-44.12s-.1-586.01-.1-586.01l44.06-.52,245.5-.12,1.02,43.41v4.31s.1,495.38,.1,495.38l-.12,43.42Z" fill="#002346" stroke="#002346" stroke-miterlimit="10"></path>
      <path d="M475.45,598.34l-246.35,.12h-44.12s-.1-586.01-.1-586.01l44.06-.52,245.5-.12,1.02,43.41v4.31s.1,495.38,.1,495.38l-.12,43.42Z" fill="#008D6B" stroke="#002346" stroke-miterlimit="10"></path>
      <path d="M373.45,29.51h23.37l65.63-.02-.38,30.39,.1,487.73,.28,30.41-233.14,.11-30.9,.3-.1-549,30.86,.15,49.28-.02-.51,9.8v7.01c0,5.43,4.27,9.8,9.53,9.8l76.49-.04c5.26,0,9.53-4.4,9.53-9.82v-7.01l-.04-9.82Z" fill="#fff" stroke="#002346" stroke-miterlimit="10"></path>
    </g>
    <path d="M677.55,63.21c-.29-13.93-14.49-25.04-31.76-24.82l-129.56,1.69c-17.26,.22-31.02,11.7-30.75,25.63l1.37,68.34c.18,9.06,6.25,16.91,15.22,21.25l-5.99,27.82,41.67-24.49,110.41-1.43c17.26-.23,31.02-11.7,30.75-25.63l-1.36-68.36Z" fill="#fff" stroke="#002346" stroke-miterlimit="10"></path>
    <path d="M599.9,71.94h-72.99c-1.16,0-2.1,.92-2.11,2.07h0v10.8c0,1.16,.95,2.09,2.11,2.08h72.99c1.16,0,2.1-.92,2.11-2.08v-10.8c0-1.16-.95-2.09-2.1-2.08,0,0,0,0,0,0Z" fill="#D4B6FF" stroke="#002346" stroke-miterlimit="10"></path>
    <path d="M525.03,71.94h-20.48c-1.15,0-2.1,.92-2.11,2.07h0v10.8c0,1.16,.95,2.09,2.11,2.08h20.48c1.16,0,2.1-.92,2.11-2.08h0v-10.8c0-1.15-.94-2.08-2.1-2.08,0,0,0,0,0,0Z" fill="#D4B6FF" stroke="#002346" stroke-miterlimit="10"></path>
    <path d="M579.64,86.9v47c-.03,4.91-4.04,8.86-8.95,8.82h-56.37c-4.83-.07-8.74-3.97-8.78-8.82v-47h74.1Z" fill="#D4B6FF" stroke="#002346" stroke-miterlimit="10"></path>
    <path d="M529.06,133.9c.04,4.91,4.05,8.86,8.96,8.82h51.68c4.91,.04,8.92-3.91,8.96-8.82h0v-47h-69.6v47Z" fill="#D4B6FF" stroke="#002346" stroke-miterlimit="10"></path>
    <polygon points="557.05 71.73 572.23 71.73 572.48 87.7 557.3 87.7 557.05 71.73" fill="#e6e7e8" stroke="#002346" stroke-miterlimit="10"></polygon>
    <polygon points="512.12 72.73 518.05 72.73 518.3 86.73 512.37 86.73 512.12 72.73" fill="#e6e7e8" stroke="#002346" stroke-miterlimit="10"></polygon>
    <polygon points="520.14 142.72 514.32 142.72 513.43 87.7 519.26 87.7 520.14 142.72" fill="#e6e7e8" stroke="#002346" stroke-miterlimit="10"></polygon>
    <polygon points="556.09 87.7 569.3 87.7 570.24 142.73 557.03 142.73 556.09 87.7" fill="#e6e7e8" stroke="#002346" stroke-miterlimit="10"></polygon>
    <path d="M524.8,59.26c-4.17,2.99-2.15,12.69-2.15,12.69h4.05s-2.31-5.8,1.01-8.11c3.33-2.31,14.46,4.05,14.46,4.05v-2.45s-13.2-9.18-17.37-6.19Zm52.07-1.85c-4.92-4.41-19.81,9.4-19.81,9.4l1.44,1.09s10.7-7.93,14.31-8.21,2.46,12.27,2.46,12.27h3.21s3.31-10.13-1.61-14.54Z" fill="#D4B6FF" stroke="#002346" stroke-miterlimit="10"></path>
    <path d="M557.64,64.05c-6.41,0-14.7-1-15.47,1.4-.77,2.4-1.14,6.5-1.14,6.5h21.17s1.85-7.9-4.56-7.9Z" fill="#e6e7e8" stroke="#002346" stroke-miterlimit="10"></path>
    <polygon points="612.33 130.8 670.54 130.8 670.54 138.76 670.54 138.76 612.33 138.76 612.33 130.8" fill="#D4B6FF" stroke="#002346" stroke-miterlimit="10"></polygon>
    <rect x="612.48" y="115.48" width="43.1" height="8.25" fill="#D4B6FF" stroke="#002346" stroke-miterlimit="10"></rect>
    <rect x="613.48" y="71.66" width="55.87" height="26.33" fill="#008D6B" stroke="#002346" stroke-miterlimit="10"></rect>
    <circle cx="626.47" cy="85.08" r="8.93" fill="#D4B6FF" stroke="#002346" stroke-miterlimit="10"></circle>
    <rect x="640.84" y="90.15" width="20.59" height="2.1" fill="#D4B6FF" stroke="#002346" stroke-miterlimit="10"></rect>
    <g>
      <polygon points="442.72 590.34 372.27 645.82 386.88 645.82 445.34 604.08 442.72 590.34" fill="#e6e7e8" stroke="#002346" stroke-miterlimit="10"></polygon>
      <polygon points="449.13 589.01 449.21 603.43 502.91 645.82 517.3 645.82 449.13 589.01" fill="#e6e7e8" stroke="#002346" stroke-miterlimit="10"></polygon>
    </g>
    <rect x="439.28" y="534.86" width="12.12" height="110.97" fill="#fff" stroke="#002346" stroke-miterlimit="10"></rect>
    <path d="M391.94,518.57h107.94v3.62c0,9.08-7.37,16.46-16.46,16.46h-75.03c-9.08,0-16.46-7.37-16.46-16.46v-3.62h0Z" fill="#fff" stroke="#002346" stroke-miterlimit="10"></path>
    <polygon points="503.37 380.71 580.64 380.71 555.95 468.47 515.86 502.91 503.37 380.71" fill="#e6e7e8" stroke="#002346" stroke-miterlimit="10"></polygon>
    <path d="M310.11,335.61l10.07,46.62,89.91,82.95,125.65,20.21,19.24-26.46-39.01-70.06-35.96-64.84c-2.38-4.15-6.83-6.67-11.61-6.6l-145.64,2.26c-8.3,.13-14.4,7.82-12.65,15.93Z" fill="#fff" stroke="#002346" stroke-miterlimit="10"></path>
    <path d="M366,377.87l-43.55,1.51c-15.91,.38-14.15,9.43-12.51,16.31l27.14,114.1c2.42,9.37,10.94,15.86,20.61,15.7l67.52-1.12-59.2-146.5Z" fill="#e6e7e8" stroke="#002346" stroke-miterlimit="10"></path>
    <path d="M526.39,318.6s-2.45,4.55-15.09,6.92c.9-4.68,1.08-10.15-.34-16.1-.23-.98-.56-1.94-.93-2.87-.39-.97-.95-2.54-1.4-4.43-.95-3.93-.72-8.03,.47-11.89,.77-2.49,1.45-6.72-.69-10.87,.27,.36,17.24,23.47,17.99,39.25Z" fill="#D4B6FF" stroke="#002346" stroke-miterlimit="10"></path>
    <path d="M381.03,386.83l15.37,48.3c2.56,8.05,7.17,15.34,13.56,20.87,7.99,6.9,20.36,12.95,37.91,9.54h78.82c9.09,0,17.59-4.63,22.39-12.35,4.07-6.55,8.5-16.11,11.7-29.62l9.95-37.62c1.33-5.01,5.86-8.51,11.05-8.51h0c7.22,0,12.64,6.62,11.2,13.7l-18.5,91.46s-6.61,40.58-57.27,42.07h-87.97s-43.36,.35-54.72-48.5l-18.66-82.49c-1.61-7.12,2.93-14.17,10.07-15.66h0c6.55-1.37,13.07,2.44,15.1,8.82Z" fill="#fff" stroke="#002346" stroke-miterlimit="10"></path>
    <path d="M490.6,393.78l-5.86,24.31,1.32,.31c-12.12,9.09-17.88,22.38-17.88,22.38-6.73,19.66,3.17,26.2,3.17,26.2v4.62c-10.17,1.26-24.54,1.43-40.01-4.15-1.83-.66-3.59-1.37-5.26-2.11-3.94-1.74-7.53-4.22-10.43-7.41-.2-.22-.39-.43-.57-.65-15.04-17.5-2.3-43.23-2.3-43.23l14.63-38.16c7.06,7.28,19.63,9.46,19.63,9.46l43.56,8.44Z" fill="#008D6B" stroke="#002346" stroke-miterlimit="10"></path>
    <path d="M547.27,655.22l-23.91,2.34c-21.21,.38-19.31-20.28-19.31-20.28l-4.17-.36v16.48h-4.17c.38-9.47-4.54-32.95-4.54-32.95-1.86-11.16,5.9-16.66,6.18-16.85-.71,1.57-1.06,3.3-.97,5.05,.71,13.91,9.57,24.3,9.57,24.3,10.23,22.34,32.95,4.92,32.95,4.92,18.56,13.63,8.38,17.35,8.38,17.35Z" fill="#D4B6FF" stroke="#002346" stroke-miterlimit="10"></path>
    <path d="M457.83,586.44s-5.88-3.69-7.1,10.99c0,0-3.56,10.39-7.5,16.51,0,0-6.75,12.78-4.64,24.46,1.69,9.33,12.09,14.33,20.26,9.52,6.64-3.91,13.62-13.23,15.53-34.69l-16.55-26.78Z" fill="#D4B6FF" stroke="#002346" stroke-miterlimit="10"></path>
    <path d="M511.29,325.52c-1.94,10.09-7.25,16.56-7.25,16.56l2.27,30.3-60.32-1.38v-44.77l-35.49,1.46c-5.3-20.07-1.51-39.01-1.51-39.01,5.3-27.27,37.01-26.46,37.01-26.46l27.75,9.8,15.53-3.41c11.56,2.13,16.89,6.4,19.13,10.74h0c2.14,4.16,1.45,8.38,.69,10.88-1.19,3.86-1.41,7.96-.47,11.89,.45,1.89,1.01,3.46,1.4,4.43,.37,.94,.7,1.89,.93,2.87,1.42,5.96,1.24,11.42,.34,16.1Z" fill="#D4B6FF" stroke="#002346" stroke-miterlimit="10"></path>
    <path d="M458.33,255.2v7.03h-12.34l20.84,22.34,22.44-15.96-14.39-3.41,.34-8.77s-8.18-.31-14.11-6.94c0,0-.78,3.65-2.79,5.7Z" fill="#f1b2c0" stroke="#002346" stroke-miterlimit="10"></path>
    <rect x="455.75" y="201.58" width="42.04" height="54.91" rx="21.02" ry="21.02" fill="#f1b2c0" stroke="#002346" stroke-miterlimit="10"></rect>
    <polygon points="506.31 372.38 515.8 388.88 512 390.51 482.07 371.41 506.31 372.38" fill="#008D6B" stroke="#002346" stroke-miterlimit="10"></polygon>
    <path d="M412.53,327.67s7.06,31.45,11.98,43.57c0,0,3.03,12.12,29.16,15.15l36.74,7.57h39.49s-6.87-9.69-18.47-5.31c-.62,.23-1.31,.16-1.87-.19l-57.02-35.41-6.55-26.83-33.46,1.44Z" fill="#f1b2c0" stroke="#002346" stroke-miterlimit="10"></path>
    <path d="M539.94,418.21h3.33s8.42,13.68,9.18,26.04c.11,1.81-.28,3.62-1.13,5.22-.85,1.58-2.17,3.8-4.05,6.23,0,0-1-18-7.33-37.5Z" fill="#008D6B" stroke="#002346" stroke-miterlimit="10"></path>
    <polygon points="434.73 414.04 400.65 665.14 409.27 665.14 457.82 414.04 434.73 414.04" fill="#e6e7e8" stroke="#002346" stroke-miterlimit="10"></polygon>
    <polygon points="696.42 414.04 730.5 665.14 721.88 665.14 673.33 414.04 696.42 414.04" fill="#e6e7e8" stroke="#002346" stroke-miterlimit="10"></polygon>
    <rect x="398.38" y="403.82" width="334.79" height="14.39" rx="7.2" ry="7.2" fill="#e6e7e8" stroke="#002346" stroke-miterlimit="10"></rect>
    <path d="M527.9,565.91s-10.6,37.11-6.82,46.58c0,0,8.71,19.31,17.8,25.37,0,0-22.72,17.42-32.95-4.92,0,0-8.86-10.39-9.57-24.3-.09-1.75,.26-3.48,.97-5.05h0c.37-.83,.85-1.61,1.42-2.33,2.14-2.73,5.04-7.56,5.28-13.88l3.03-94.95s1.51-17.86-3.03-12.15l-20.83,96.32s-7.44,32.42-8.84,36.61c0,0-27.52,4.54-25.25-3.59,0,0,3.8-17.51,7.65-22.25,.75-.92,1.17-2.06,1.3-3.23,1.77-16.07,12.32-111.78,12.45-116.91,0,0-18.56-20.83,14.2-49.04h55.21s8.83,24.01,7.1,48.93c0,0-7.4,56.36-19.14,98.77Z" fill="#f1b2c0" stroke="#002346" stroke-miterlimit="10"></path>
    <path d="M525.41,319.75l4.49,31.3,87.62,21.33v15.5l-92.11-11.15s-20.04-1.21-19.76-13.2l-1.61-21.46s4.66-5.86,7.25-16.56c0,0,9.73-1.59,14.11-5.77Z" fill="#f1b2c0" stroke="#002346" stroke-miterlimit="10"></path>
    <polygon points="683.45 372.45 539.78 372.95 568.05 270.89 713.45 270.45 683.45 372.45" fill="#fff" stroke="#002346" stroke-miterlimit="10"></polygon>
    <polygon points="565.53 403.82 484.73 403.82 484.73 393.97 565.77 393.97 565.53 403.82" fill="#e6e7e8" stroke="#002346" stroke-miterlimit="10"></polygon>
    <polygon points="683.56 372.76 544.56 372.76 571.83 274.67 711.96 274.67 683.56 372.76" fill="#D4B6FF" stroke="#002346" stroke-miterlimit="10"></polygon>
    <path d="M658.89,395.12l-15.17-44.06h-37.65l13.2,40.82c.7,2.16-.91,4.37-3.18,4.37h-35.22c-2.05,0-3.89,1.54-4,3.58-.11,2.18,1.62,3.99,3.78,3.99h72.02c4.51,0,7.67-4.44,6.21-8.7Zm-21.45-13c-.42,.08-.84,.09-1.26,.05-2.42-.26-4.6-2.51-5.18-5.58-.59-3.15,.7-6.12,2.97-7.17,.32-.15,.66-.26,1.01-.33,2.88-.54,5.76,1.94,6.44,5.53,.68,3.6-1.11,6.95-3.98,7.49Z" fill="#D4B6FF" stroke="#002346" stroke-miterlimit="10"></path>
    <path d="M637.44,382.12c-.42,.08-.84,.09-1.26,.05,.27,.29,3.65-3.77,2.97-7.17s-2.29-5.29-4.7-5.55c.32-.15,.18-.3,.54-.36,2.88-.54,5.76,1.94,6.44,5.53,.68,3.6-1.11,6.95-3.98,7.49Z" fill="#fff" stroke="#002346" stroke-miterlimit="10"></path>
    <ellipse cx="637.45" cy="318.08" rx="12.02" ry="9.47" transform="translate(129.52 817.6) rotate(-71.04)" fill="none" stroke="#fff" stroke-miterlimit="10"></ellipse>
    <line x1="445.99" y1="326.24" x2="444.62" y2="295.58" fill="none" stroke="#002346" stroke-linecap="round" stroke-linejoin="round"></line>
    <path d="M504.04,342.09c-3.04-.51-6.55-.88-10.44-.9-7.18-.04-13.28,1.1-17.9,2.36" fill="none" stroke="#002346" stroke-linecap="round" stroke-linejoin="round"></path>
    <line x1="505.76" y1="478.33" x2="511.41" y2="439.78" fill="none" stroke="#002346" stroke-linecap="round" stroke-linejoin="round"></line>
    <polygon points="106.34 492.41 98.04 638.38 228.2 630.43 218.54 493.1 106.34 492.41" fill="#fff" stroke="#002346" stroke-miterlimit="10"></polygon>
    <polygon points="76.15 621.63 98.04 638.38 106.34 492.41 90.94 488.32 76.15 621.63" fill="#e6e7e8" stroke="#002346" stroke-miterlimit="10"></polygon>
    <path d="M90.97,488.33l15.38,4.08,112.43,.68-26.46-5.09-101.34,.32s0,0,0,0Z" fill="#fff" stroke="#002346" stroke-miterlimit="10"></path>
    <path d="M155.47,450.61c-17.71,2.5-20.91,42.19-20.91,42.19l12.61-.24s-1.39-26.53,7.15-32.85c8.54-6.33,10.85,33.39,10.85,33.39l19.32-.11s-11.32-44.86-29.01-42.37Z" fill="#fff" stroke="#002346" stroke-miterlimit="10"></path>
    <polygon points="254.64 518.52 268.39 642.84 299.58 626.47 273.93 514.43 254.64 518.52" fill="#D4B6FF" stroke="#002346" stroke-miterlimit="10"></polygon>
    <path d="M137.1,514.48l117.54,4.03,18.99-4.02s.04-.07,0-.08l-123.36-5.14-13.16,5.21Z" fill="#002346" stroke="#002346" stroke-miterlimit="10"></path>
    <path d="M206.23,470.88c-22.04-.91-24.71,40.08-24.71,40.08l11.8,.68c4.23-18.82,7.59-34.19,15.15-32.39,7.55,1.8,7.09,32.85,7.09,32.85l14.58,.88s-1.86-41.19-23.91-42.1Z" fill="#fff" stroke="#002346" stroke-miterlimit="10"></path>
    <path d="M201.23,477.88c-22.04-.91-24.71,40.08-24.71,40.08l11.8,.68c4.23-18.82,7.59-34.19,15.15-32.39,7.55,1.8,7.09,32.85,7.09,32.85l14.58,.88s-1.86-41.19-23.91-42.1Z" fill="#fff" stroke="#002346" stroke-miterlimit="10"></path>
    <polygon points="137.1 514.46 118.71 635.24 128.56 636.45 268.39 642.82 254.64 518.49 137.1 514.46" fill="#D4B6FF" stroke="#002346" stroke-miterlimit="10"></polygon>
    <g>
      <ellipse cx="446.08" cy="195.7" rx="12.26" ry="12.47" transform="translate(-33.83 112.19) rotate(-13.82)" fill="#002346" stroke="#002346" stroke-miterlimit="10"></ellipse>
      <ellipse cx="454.9" cy="201.4" rx="9.43" ry="9.6" transform="translate(-34.93 114.46) rotate(-13.82)" fill="#D4B6FF" stroke="#002346" stroke-miterlimit="10"></ellipse>
      <path d="M487.13,210.06c-2.06,2.7-6.79,7.21-16.9,10.55,0,0,2.13,6.49-4.54,14.3-1.94,2.27-3.05,5.17-2.98,8.19,.1,4.78,1.75,9.35,10.75,13.35,0,0-6.39,5.97-14.24,5.29,0,0-3.41,5.74-11,7.21-3.13,.61-6.42-.61-8.33-3.21-2.55-3.47-4.92-10.21-3.31-23.17,0,0,.6-44.43,24.75-50.37,0,0,10.7-4.5,21.46-1.68,10.85,2.85,16.74,20.59,14.89,29l-2.49-3.22c-2.02-2.61-2.41-3.12-3.83-5.83-.14-.27-.33-.52-.56-.72h0c-1.1-1-2.76-.87-3.66,.31Z" fill="#002346" stroke="#002346" stroke-miterlimit="10"></path>
    </g>
    <text transform="translate(641.93 87.66)" fill="#002346" font-family="Barlow-Medium, Barlow" font-size="12" font-weight="500" letter-spacing=".04em">
      <tspan x="0" y="0">VIP</tspan>
    </text>
  </g>
  <g>
    <path d="M638.16,591.98c.2,2.34,.51,4.98,.96,7.67,0,0,9.48-31.02,40.64-27.02l-6.12-13.48-5.06-5.06c-10.16,5.28-20,3.69-26.72,17.32-3.14,6.36-4.31,13.51-3.69,20.58Z" fill="#7cd295" stroke="#002346" stroke-miterlimit="10"></path>
    <path d="M726.01,562.27c-28.12,.03-32.32-41.41-3.91-75.9,.09-.11,.27-.04,.26,.11-1.12,11.76,33.4,53.9,10.78,73.19-1.99,1.69-4.51,2.6-7.12,2.6Z" fill="#7cd295" stroke="#002346" stroke-miterlimit="10"></path>
    <path d="M724.31,546.79c-17.74-10.53-13.74-42.1,38.83-60.73,.1-.03,.2,.06,.16,.15-.6,1.71-4.08,12.88-5.91,44.4-.49,8.4-12.49,28.4-33.08,16.17Z" fill="#7cd295" stroke="#002346" stroke-miterlimit="10"></path>
    <path d="M742.67,615.98c.8,6.21-41.3,6.21-40.5,0-.8-6.21,41.3-6.21,40.5,0Z" fill="#002346" stroke="#002346" stroke-miterlimit="10"></path>
    <path d="M744.33,670.98c-1.82-.27-48.18,.79-48.29-.86-9.13-4.33-9.52-18.47-9.52-18.47-1.38-18.87,15.65-28.99,15.65-28.99v-6.67c-.8,6.21,41.3,6.21,40.5,0v7.13c22.29,14.63,17.77,46.38,1.66,47.86Z" fill="#D4B6FF" stroke="#002346" stroke-miterlimit="10"></path>
    <path d="M744.05,631.4c.05,3.58-5.58,3.58-5.52,0-.05-3.58,5.58-3.58,5.52,0Z" fill="#fff"></path>
    <path d="M752.33,639.68c.05,3.58-5.58,3.58-5.52,0-.05-3.58,5.58-3.58,5.52,0Z" fill="#fff"></path>
    <path d="M753.71,653.03c.05,3.58-5.58,3.58-5.52,0-.05-3.58,5.58-3.58,5.52,0Z" fill="#fff"></path>
    <path d="M746.35,663.16c.05,3.58-5.58,3.58-5.52,0-.05-3.58,5.58-3.58,5.52,0Z" fill="#fff"></path>
    <path d="M723.8,665.92c.05,3.58-5.58,3.58-5.52,0-.05-3.58,5.58-3.58,5.52,0Z" fill="#fff"></path>
    <path d="M706.31,663.16c.05,3.58-5.58,3.58-5.52,0-.05-3.58,5.58-3.58,5.52,0Z" fill="#fff"></path>
    <path d="M696.65,655.33c.05,3.58-5.58,3.58-5.52,0-.05-3.58,5.58-3.58,5.52,0Z" fill="#fff"></path>
    <path d="M698.03,639.68c.05,3.58-5.58,3.58-5.52,0-.05-3.58,5.58-3.58,5.52,0Z" fill="#fff"></path>
    <path d="M708.15,630.48c.05,3.58-5.58,3.58-5.52,0-.05-3.58,5.58-3.58,5.52,0Z" fill="#fff"></path>
    <path d="M717.36,638.76c.05,3.58-5.58,3.58-5.52,0-.05-3.58,5.58-3.58,5.52,0Z" fill="#fff"></path>
    <path d="M706.77,646.13c.05,3.58-5.58,3.58-5.52,0-.05-3.58,5.58-3.58,5.52,0Z" fill="#fff"></path>
    <path d="M715.97,655.33c.05,3.58-5.58,3.58-5.52,0-.05-3.58,5.58-3.58,5.52,0Z" fill="#fff"></path>
    <path d="M726.1,647.51c.05,3.58-5.58,3.58-5.52,0-.05-3.58,5.58-3.58,5.52,0Z" fill="#fff"></path>
    <path d="M727.94,631.86c.05,3.58-5.58,3.58-5.52,0-.05-3.58,5.58-3.58,5.52,0Z" fill="#fff"></path>
    <path d="M736.23,641.53c.05,3.58-5.58,3.58-5.52,0-.05-3.58,5.58-3.58,5.52,0Z" fill="#fff"></path>
    <path d="M742.67,647.97c.05,3.58-5.58,3.58-5.52,0-.05-3.58,5.58-3.58,5.52,0Z" fill="#fff"></path>
    <path d="M733.46,657.17c.05,3.58-5.58,3.58-5.52,0-.05-3.58,5.58-3.58,5.52,0Z" fill="#fff"></path>
    <path d="M767.52,584.92c-15.18-12.36-36.76,4.61-15.19,25.77,0,0,11.05,10.12,15.65,20.71,0,0,21.17-15.19,21.63-35.9,0,0,0-21.17-22.09-10.59Z" fill="#7cd295" stroke="#002346" stroke-miterlimit="10"></path>
    <path d="M638.68,582.35c23.85-42.04,34.03,1.19,69.93-4.8,.54-48.33-69.4-46.3-69.93,4.8Z" fill="#7cd295" stroke="#002346" stroke-miterlimit="10"></path>
    <path d="M702.17,622.66s16.99,8.72,40.5,.46" fill="none" stroke="#002346" stroke-linecap="round" stroke-linejoin="round"></path>
    <path d="M726.68,600.35s10-42,35.45-21.63c3.58,2.86,5.82,7.08,6.91,11.53,1.69,6.9,3.83,19.46,1.14,31.6" fill="none" stroke="#002346" stroke-linecap="round" stroke-linejoin="round"></path>
    <path d="M759.18,489.85s-47,34-31,126" fill="none" stroke="#002346" stroke-linecap="round" stroke-linejoin="round"></path>
    <path d="M657.18,554.85s62-1,64,60" fill="none" stroke="#002346" stroke-linecap="round" stroke-linejoin="round"></path>
  </g>
</svg>
