<?xml version="1.0" encoding="utf-8"?>
<!-- Generator: Adobe Illustrator 27.5.0, SVG Export Plug-In . SVG Version: 6.00 Build 0)  -->
<svg version="1.1" id="Capa_1" xmlns="http://www.w3.org/2000/svg" xmlns:xlink="http://www.w3.org/1999/xlink" x="0px" y="0px"
	 viewBox="0 0 1700.787 1700.787" style="enable-background:new 0 0 1700.787 1700.787;" xml:space="preserve">
<rect y="0" style="fill-rule:evenodd;clip-rule:evenodd;fill:#CFB6FA;" width="1700.787" height="1700.787"/>
<g>
	<path style="fill-rule:evenodd;clip-rule:evenodd;fill:#CFB6FA;" d="M601.69,0c0,607.015,492.083,1099.097,1099.097,1099.097V0
		H601.69z"/>
	<path style="fill-rule:evenodd;clip-rule:evenodd;fill:#CFB6FA;" d="M609.995,0c0,602.428,488.365,1090.792,1090.792,1090.792V0
		H609.995z"/>
	<path style="fill-rule:evenodd;clip-rule:evenodd;fill:#2D74A0;" d="M618.299,0c0.001,597.842,484.646,1082.487,1082.488,1082.487
		V0H618.299z"/>
	<path style="fill-rule:evenodd;clip-rule:evenodd;fill:#2D74A0;" d="M626.604,0c0,593.255,480.928,1074.183,1074.183,1074.183V0
		H626.604z"/>
	<path style="fill-rule:evenodd;clip-rule:evenodd;fill:#2D74A0;" d="M634.909,0c0,588.668,477.209,1065.878,1065.878,1065.878V0
		H634.909z"/>
	<path style="fill-rule:evenodd;clip-rule:evenodd;fill:#2D74A1;" d="M643.214,0c0,584.082,473.491,1057.573,1057.573,1057.573V0
		H643.214z"/>
	<path style="fill-rule:evenodd;clip-rule:evenodd;fill:#2D75A1;" d="M651.519,0c0,579.496,469.773,1049.269,1049.269,1049.269V0
		H651.519z"/>
	<path style="fill-rule:evenodd;clip-rule:evenodd;fill:#2D75A1;" d="M659.823,0c0,574.909,466.056,1040.964,1040.964,1040.964V0
		H659.823z"/>
	<path style="fill-rule:evenodd;clip-rule:evenodd;fill:#2D75A2;" d="M668.128,0c0,570.322,462.337,1032.659,1032.659,1032.659V0
		H668.128z"/>
	<path style="fill-rule:evenodd;clip-rule:evenodd;fill:#2E75A2;" d="M676.432,0c0,565.736,458.62,1024.354,1024.355,1024.354V0
		H676.432z"/>
	<path style="fill-rule:evenodd;clip-rule:evenodd;fill:#2E76A2;" d="M684.737,0c0.001,561.149,454.901,1016.05,1016.05,1016.05V0
		H684.737z"/>
	<path style="fill-rule:evenodd;clip-rule:evenodd;fill:#2E76A3;" d="M693.042,0c0,556.563,451.183,1007.745,1007.746,1007.745V0
		H693.042z"/>
	<path style="fill-rule:evenodd;clip-rule:evenodd;fill:#2E76A3;" d="M701.346,0c0,551.976,447.464,999.44,999.441,999.44V0H701.346
		z"/>
	<path style="fill-rule:evenodd;clip-rule:evenodd;fill:#2E77A3;" d="M709.651,0c0,547.389,443.747,991.136,991.136,991.136V0
		H709.651z"/>
	<path style="fill-rule:evenodd;clip-rule:evenodd;fill:#2E77A4;" d="M717.956,0c0,542.803,440.028,982.831,982.831,982.831V0
		H717.956z"/>
	<path style="fill-rule:evenodd;clip-rule:evenodd;fill:#2F77A4;" d="M726.261,0c0,538.216,436.31,974.526,974.526,974.526V0
		H726.261z"/>
	<path style="fill-rule:evenodd;clip-rule:evenodd;fill:#2F77A4;" d="M734.565,0c0,533.63,432.592,966.222,966.222,966.222V0
		H734.565z"/>
	<path style="fill-rule:evenodd;clip-rule:evenodd;fill:#2F78A5;" d="M742.87,0c0,529.043,428.874,957.917,957.917,957.917V0H742.87
		z"/>
	<path style="fill-rule:evenodd;clip-rule:evenodd;fill:#2F78A5;" d="M751.175,0c0,524.457,425.155,949.612,949.612,949.612V0
		H751.175z"/>
	<path style="fill-rule:evenodd;clip-rule:evenodd;fill:#2F78A5;" d="M759.479,0c0,519.87,421.438,941.308,941.308,941.308V0
		H759.479z"/>
	<path style="fill-rule:evenodd;clip-rule:evenodd;fill:#2F78A6;" d="M767.784,0c0,515.284,417.72,933.003,933.003,933.003V0
		H767.784z"/>
	<path style="fill-rule:evenodd;clip-rule:evenodd;fill:#3079A6;" d="M776.088,0c0,510.697,414.001,924.698,924.699,924.698V0
		H776.088z"/>
	<path style="fill-rule:evenodd;clip-rule:evenodd;fill:#3079A6;" d="M784.393,0c0,506.11,410.284,916.393,916.394,916.393V0
		H784.393z"/>
	<path style="fill-rule:evenodd;clip-rule:evenodd;fill:#3079A7;" d="M792.698,0c0,501.524,406.565,908.089,908.089,908.089V0
		H792.698z"/>
	<path style="fill-rule:evenodd;clip-rule:evenodd;fill:#307AA7;" d="M801.003,0c0,496.938,402.847,899.784,899.784,899.784V0
		H801.003z"/>
	<path style="fill-rule:evenodd;clip-rule:evenodd;fill:#307AA7;" d="M809.308,0c0,492.351,399.129,891.479,891.48,891.479V0
		H809.308z"/>
	<path style="fill-rule:evenodd;clip-rule:evenodd;fill:#307AA8;" d="M817.612,0c0,487.764,395.41,883.175,883.175,883.175V0
		H817.612z"/>
	<path style="fill-rule:evenodd;clip-rule:evenodd;fill:#317AA8;" d="M825.917,0c0,483.178,391.692,874.87,874.87,874.87V0H825.917z
		"/>
	<path style="fill-rule:evenodd;clip-rule:evenodd;fill:#317BA8;" d="M834.222,0c0,478.591,387.975,866.565,866.565,866.565V0
		H834.222z"/>
	<path style="fill-rule:evenodd;clip-rule:evenodd;fill:#317BA9;" d="M842.526,0c0,474.005,384.256,858.261,858.261,858.261V0
		H842.526z"/>
	<path style="fill-rule:evenodd;clip-rule:evenodd;fill:#317BA9;" d="M850.831,0c0,469.418,380.538,849.956,849.956,849.956V0
		H850.831z"/>
	<path style="fill-rule:evenodd;clip-rule:evenodd;fill:#317BA9;" d="M859.136,0c0,464.832,376.82,841.651,841.651,841.651V0
		H859.136z"/>
	<path style="fill-rule:evenodd;clip-rule:evenodd;fill:#327CAA;" d="M867.44,0c0,460.245,373.102,833.347,833.347,833.347V0H867.44
		z"/>
	<path style="fill-rule:evenodd;clip-rule:evenodd;fill:#327CAA;" d="M875.745,0c0,455.658,369.384,825.042,825.042,825.042V0
		H875.745z"/>
	<path style="fill-rule:evenodd;clip-rule:evenodd;fill:#327CAA;" d="M884.05,0c0,451.072,365.665,816.737,816.737,816.737V0H884.05
		z"/>
	<path style="fill-rule:evenodd;clip-rule:evenodd;fill:#327DAB;" d="M892.354,0c0,446.485,361.947,808.433,808.433,808.433V0
		H892.354z"/>
	<path style="fill-rule:evenodd;clip-rule:evenodd;fill:#327DAB;" d="M900.659,0c0,441.898,358.229,800.128,800.128,800.128V0
		H900.659z"/>
	<path style="fill-rule:evenodd;clip-rule:evenodd;fill:#327DAB;" d="M908.964,0c0,437.312,354.511,791.823,791.823,791.823V0
		H908.964z"/>
	<path style="fill-rule:evenodd;clip-rule:evenodd;fill:#337DAC;" d="M917.269,0c0,432.726,350.793,783.518,783.519,783.518V0
		H917.269z"/>
	<path style="fill-rule:evenodd;clip-rule:evenodd;fill:#337EAC;" d="M925.573,0c0,428.139,347.075,775.214,775.214,775.214V0
		H925.573z"/>
	<path style="fill-rule:evenodd;clip-rule:evenodd;fill:#337EAC;" d="M933.878,0c0,423.553,343.357,766.909,766.909,766.909V0
		H933.878z"/>
	<path style="fill-rule:evenodd;clip-rule:evenodd;fill:#337EAD;" d="M942.183,0c0,418.966,339.639,758.604,758.605,758.604V0
		H942.183z"/>
	<path style="fill-rule:evenodd;clip-rule:evenodd;fill:#337EAD;" d="M950.487,0c0,414.379,335.921,750.3,750.3,750.3V0H950.487z"/>
	<path style="fill-rule:evenodd;clip-rule:evenodd;fill:#337FAD;" d="M958.792,0c0,409.793,332.202,741.995,741.995,741.995V0
		H958.792z"/>
	<path style="fill-rule:evenodd;clip-rule:evenodd;fill:#347FAE;" d="M967.097,0c0,405.206,328.484,733.69,733.69,733.69V0H967.097z
		"/>
	<path style="fill-rule:evenodd;clip-rule:evenodd;fill:#347FAE;" d="M975.401,0c0,400.62,324.767,725.386,725.386,725.386V0
		H975.401z"/>
	<path style="fill-rule:evenodd;clip-rule:evenodd;fill:#347FAE;" d="M983.706,0c0,396.033,321.048,717.081,717.081,717.081V0
		H983.706z"/>
	<path style="fill-rule:evenodd;clip-rule:evenodd;fill:#3480AF;" d="M992.011,0c0,391.446,317.33,708.776,708.776,708.776V0
		H992.011z"/>
	<path style="fill-rule:evenodd;clip-rule:evenodd;fill:#3480AF;" d="M1000.315,0c0,386.86,313.611,700.472,700.472,700.472V0
		H1000.315z"/>
	<path style="fill-rule:evenodd;clip-rule:evenodd;fill:#3480AF;" d="M1008.62,0c0,382.273,309.894,692.167,692.167,692.167V0
		H1008.62z"/>
	<path style="fill-rule:evenodd;clip-rule:evenodd;fill:#3581B0;" d="M1016.925,0c0,377.687,306.176,683.862,683.862,683.862V0
		H1016.925z"/>
	<path style="fill-rule:evenodd;clip-rule:evenodd;fill:#3581B0;" d="M1025.229,0c0,373.101,302.457,675.558,675.558,675.558V0
		H1025.229z"/>
	<path style="fill-rule:evenodd;clip-rule:evenodd;fill:#3581B0;" d="M1033.534,0c0,368.514,298.739,667.253,667.253,667.253V0
		H1033.534z"/>
	<path style="fill-rule:evenodd;clip-rule:evenodd;fill:#3581B1;" d="M1041.839,0c0,363.927,295.021,658.948,658.948,658.948V0
		H1041.839z"/>
	<path style="fill-rule:evenodd;clip-rule:evenodd;fill:#3582B1;" d="M1050.144,0c0,359.341,291.303,650.643,650.644,650.643V0
		H1050.144z"/>
	<path style="fill-rule:evenodd;clip-rule:evenodd;fill:#3682B1;" d="M1058.448,0c0,354.754,287.585,642.339,642.339,642.339V0
		H1058.448z"/>
	<path style="fill-rule:evenodd;clip-rule:evenodd;fill:#3682B2;" d="M1066.753,0c0,350.168,283.866,634.034,634.034,634.034V0
		H1066.753z"/>
	<path style="fill-rule:evenodd;clip-rule:evenodd;fill:#3682B2;" d="M1075.058,0c0,345.581,280.148,625.729,625.729,625.729V0
		H1075.058z"/>
	<path style="fill-rule:evenodd;clip-rule:evenodd;fill:#3683B2;" d="M1083.362,0c0,340.994,276.431,617.425,617.425,617.425V0
		H1083.362z"/>
	<path style="fill-rule:evenodd;clip-rule:evenodd;fill:#3683B3;" d="M1091.667,0c0,336.408,272.712,609.12,609.12,609.12V0
		H1091.667z"/>
	<path style="fill-rule:evenodd;clip-rule:evenodd;fill:#3683B3;" d="M1099.972,0c0,331.821,268.994,600.815,600.815,600.815V0
		H1099.972z"/>
	<path style="fill-rule:evenodd;clip-rule:evenodd;fill:#3784B3;" d="M1108.276,0c0,327.234,265.276,592.511,592.511,592.511V0
		H1108.276z"/>
	<path style="fill-rule:evenodd;clip-rule:evenodd;fill:#3784B4;" d="M1116.581,0c0,322.648,261.558,584.206,584.206,584.206V0
		H1116.581z"/>
	<path style="fill-rule:evenodd;clip-rule:evenodd;fill:#3784B4;" d="M1124.886,0c0,318.062,257.84,575.901,575.901,575.901V0
		H1124.886z"/>
	<path style="fill-rule:evenodd;clip-rule:evenodd;fill:#3784B4;" d="M1133.19,0c0,313.475,254.122,567.597,567.597,567.597V0
		H1133.19z"/>
	<path style="fill-rule:evenodd;clip-rule:evenodd;fill:#3785B5;" d="M1141.495,0c0,308.889,250.403,559.292,559.292,559.292V0
		H1141.495z"/>
	<path style="fill-rule:evenodd;clip-rule:evenodd;fill:#3785B5;" d="M1149.8,0c0,304.302,246.686,550.987,550.987,550.987V0H1149.8
		z"/>
	<path style="fill-rule:evenodd;clip-rule:evenodd;fill:#3885B5;" d="M1158.104,0c0,299.715,242.968,542.683,542.683,542.683V0
		H1158.104z"/>
	<path style="fill-rule:evenodd;clip-rule:evenodd;fill:#3885B6;" d="M1166.409,0c0,295.129,239.249,534.377,534.378,534.377V0
		H1166.409z"/>
	<path style="fill-rule:evenodd;clip-rule:evenodd;fill:#3886B6;" d="M1174.714,0c0,290.542,235.531,526.073,526.073,526.073V0
		H1174.714z"/>
	<path style="fill-rule:evenodd;clip-rule:evenodd;fill:#3886B6;" d="M1183.019,0c0,285.956,231.813,517.768,517.769,517.768V0
		H1183.019z"/>
	<path style="fill-rule:evenodd;clip-rule:evenodd;fill:#3886B7;" d="M1191.323,0c0,281.369,228.095,509.463,509.464,509.463V0
		H1191.323z"/>
	<path style="fill-rule:evenodd;clip-rule:evenodd;fill:#3887B7;" d="M1199.628,0c0,276.782,224.377,501.159,501.159,501.159V0
		H1199.628z"/>
	<path style="fill-rule:evenodd;clip-rule:evenodd;fill:#3987B7;" d="M1207.933,0c0,272.196,220.658,492.855,492.854,492.855V0
		H1207.933z"/>
	<path style="fill-rule:evenodd;clip-rule:evenodd;fill:#3987B8;" d="M1216.237,0c0,267.609,216.94,484.55,484.55,484.55V0H1216.237
		z"/>
	<path style="fill-rule:evenodd;clip-rule:evenodd;fill:#3987B8;" d="M1224.542,0c0,263.023,213.223,476.245,476.245,476.245V0
		H1224.542z"/>
	<path style="fill-rule:evenodd;clip-rule:evenodd;fill:#3988B8;" d="M1232.847,0c0,258.437,209.504,467.94,467.94,467.94V0
		H1232.847z"/>
	<path style="fill-rule:evenodd;clip-rule:evenodd;fill:#3988B9;" d="M1241.151,0c0.001,253.85,205.786,459.635,459.636,459.635V0
		H1241.151z"/>
	<path style="fill-rule:evenodd;clip-rule:evenodd;fill:#3988B9;" d="M1249.456,0c0,249.263,202.067,451.331,451.331,451.331V0
		H1249.456z"/>
	<path style="fill-rule:evenodd;clip-rule:evenodd;fill:#3A88B9;" d="M1257.761,0c0,244.677,198.35,443.026,443.026,443.026V0
		H1257.761z"/>
	<path style="fill-rule:evenodd;clip-rule:evenodd;fill:#3A89BA;" d="M1266.065,0c0.001,240.09,194.632,434.721,434.722,434.721V0
		H1266.065z"/>
	<path style="fill-rule:evenodd;clip-rule:evenodd;fill:#3A89BA;" d="M1274.37,0c0,235.503,190.913,426.417,426.417,426.417V0
		H1274.37z"/>
</g>
<g>
	<path style="fill-rule:evenodd;clip-rule:evenodd;fill:#FFFFFF;" d="M607.575,1647.741c0.86-0.003,1.647-0.231,2.358-0.68
		c0.723-0.451,1.295-1.144,1.725-2.079c0.424-0.942,0.635-2.104,0.635-3.497c0-1.324-0.211-2.453-0.635-3.394
		c-0.431-0.95-1.011-1.681-1.74-2.171c-0.717-0.497-1.496-0.74-2.343-0.75v-3.559c0.801,0.113,1.513,0.325,2.137,0.633
		c0.978,0.487,1.929,1.244,2.856,2.253v-7.289c0-1.016,0.203-1.778,0.609-2.301c0.402-0.525,0.979-0.774,1.722-0.774
		c0.751,0,1.33,0.237,1.729,0.719c0.409,0.473,0.611,1.173,0.611,2.1v21.781c0,0.942-0.218,1.648-0.649,2.115
		c-0.438,0.472-1.001,0.704-1.691,0.704c-0.674,0-1.23-0.234-1.667-0.728c-0.442-0.483-0.663-1.188-0.663-2.092v-0.49
		c-0.664,0.767-1.317,1.376-1.961,1.854c-0.646,0.478-1.341,0.839-2.101,1.088c-0.299,0.099-0.609,0.177-0.931,0.235V1647.741z
		 M602.855,1641.485c0,1.334,0.207,2.473,0.624,3.414s0.988,1.646,1.707,2.121c0.722,0.483,1.512,0.721,2.371,0.721h0.017v3.68
		c-0.487,0.088-1,0.132-1.534,0.132c-1.183,0-2.279-0.247-3.283-0.745c-1.006-0.499-1.881-1.215-2.616-2.148
		c-0.737-0.919-1.295-2.018-1.674-3.273c-0.383-1.253-0.571-2.611-0.571-4.072c0-3.083,0.753-5.489,2.262-7.217
		c1.508-1.722,3.493-2.584,5.952-2.584c0.517,0,1.005,0.032,1.464,0.098v3.559l-0.054-0.001c-0.904,0-1.713,0.252-2.426,0.763
		c-0.707,0.513-1.259,1.256-1.65,2.215C603.049,1639.098,602.855,1640.218,602.855,1641.485z"/>
	<path style="fill-rule:evenodd;clip-rule:evenodd;fill:#FFFFFF;" d="M630.796,1639.924h4.475c-0.119-1.687-0.573-2.951-1.369-3.786
		c-0.786-0.837-1.824-1.256-3.106-1.259v-3.436h0.153c1.931,0,3.585,0.4,4.96,1.224c1.389,0.81,2.42,1.859,3.111,3.15
		c0.687,1.287,1.025,2.607,1.025,3.945c0,1.235-0.357,2.051-1.067,2.417c-0.714,0.367-1.709,0.549-3.002,0.549h-5.179V1639.924
		L630.796,1639.924z M630.796,1651.545v-3.278c0.122,0.008,0.245,0.013,0.37,0.013c0.589,0,1.129-0.065,1.619-0.203
		c0.487-0.132,0.955-0.361,1.418-0.657c0.461-0.293,0.882-0.609,1.269-0.946c0.384-0.338,0.881-0.796,1.497-1.371
		c0.255-0.22,0.617-0.334,1.086-0.334c0.505,0,0.914,0.144,1.23,0.42c0.313,0.274,0.472,0.672,0.472,1.173
		c0,0.449-0.175,0.965-0.523,1.569c-0.353,0.596-0.878,1.171-1.588,1.72c-0.699,0.548-1.586,0.997-2.658,1.369
		c-1.066,0.354-2.292,0.534-3.682,0.534C631.134,1651.553,630.964,1651.55,630.796,1651.545z M626.32,1639.924h4.476v2.805h-4.476
		c0.01,1.124,0.235,2.106,0.674,2.963c0.441,0.862,1.025,1.505,1.76,1.933c0.624,0.381,1.304,0.591,2.042,0.643v3.278
		c-2.926-0.094-5.221-0.997-6.887-2.705c-1.761-1.807-2.641-4.26-2.641-7.354c0-1.464,0.217-2.819,0.651-4.069
		c0.437-1.244,1.07-2.32,1.9-3.213c0.833-0.885,1.856-1.568,3.077-2.05c1.174-0.459,2.475-0.694,3.899-0.71v3.436h-0.013
		c-1.227,0-2.241,0.419-3.025,1.267C626.966,1636.999,626.485,1638.258,626.32,1639.924z"/>
	<path style="fill-rule:evenodd;clip-rule:evenodd;fill:#FFFFFF;" d="M660.108,1645.102c0,1.355-0.333,2.522-0.993,3.49
		c-0.667,0.979-1.646,1.717-2.941,2.216c-1.293,0.498-2.875,0.745-4.728,0.745c-1.774,0-3.294-0.267-4.562-0.81
		c-1.271-0.54-2.199-1.229-2.807-2.033c-0.599-0.815-0.903-1.634-0.903-2.455c0-0.543,0.192-1.007,0.58-1.391
		c0.388-0.388,0.873-0.584,1.468-0.584c0.515,0,0.914,0.132,1.194,0.388c0.276,0.243,0.543,0.604,0.797,1.059
		c0.504,0.884,1.109,1.54,1.813,1.968c0.709,0.44,1.671,0.655,2.891,0.655c0.985,0,1.795-0.221,2.432-0.655
		c0.632-0.443,0.949-0.941,0.949-1.508c0-0.871-0.333-1.507-0.985-1.906c-0.657-0.394-1.74-0.78-3.251-1.138
		c-1.697-0.423-3.082-0.858-4.147-1.329c-1.065-0.464-1.917-1.074-2.558-1.833c-0.64-0.767-0.96-1.693-0.96-2.805
		c0.001-0.985,0.292-1.925,0.886-2.813c0.589-0.874,1.462-1.569,2.611-2.098c1.156-0.528,2.546-0.786,4.168-0.786
		c1.281,0,2.428,0.129,3.446,0.393c1.021,0.268,1.87,0.623,2.554,1.074c0.681,0.442,1.197,0.935,1.552,1.481
		c0.357,0.542,0.536,1.07,0.536,1.59c0,0.566-0.19,1.032-0.57,1.391c-0.378,0.354-0.921,0.543-1.619,0.543
		c-0.507,0-0.939-0.144-1.295-0.429c-0.353-0.287-0.762-0.725-1.221-1.305c-0.372-0.482-0.812-0.875-1.317-1.162
		c-0.51-0.287-1.196-0.438-2.067-0.438c-0.892,0-1.631,0.203-2.222,0.584c-0.591,0.372-0.889,0.848-0.889,1.405
		c0,0.528,0.219,0.95,0.656,1.279c0.436,0.337,1.014,0.613,1.753,0.83c0.733,0.214,1.748,0.477,3.038,0.794
		c1.532,0.376,2.783,0.813,3.755,1.336c0.973,0.518,1.706,1.129,2.205,1.839C659.86,1643.389,660.108,1644.195,660.108,1645.102z"/>
	<path style="fill-rule:evenodd;clip-rule:evenodd;fill:#FFFFFF;" d="M669.224,1634.274v14.28c0,0.989-0.235,1.733-0.705,2.241
		c-0.467,0.51-1.066,0.757-1.788,0.757c-0.726,0-1.315-0.253-1.765-0.774c-0.455-0.52-0.676-1.265-0.676-2.224v-14.128
		c0-0.975,0.221-1.72,0.676-2.203c0.45-0.499,1.04-0.745,1.765-0.745c0.723,0,1.32,0.246,1.788,0.745
		C668.989,1632.707,669.224,1633.397,669.224,1634.274L669.224,1634.274z M666.784,1629.182c-0.69,0-1.275-0.22-1.762-0.634
		c-0.492-0.422-0.733-1.021-0.733-1.793c0-0.698,0.249-1.278,0.751-1.728c0.498-0.458,1.076-0.68,1.744-0.68
		c0.635,0,1.204,0.201,1.699,0.609c0.494,0.42,0.741,1.015,0.741,1.798c0,0.76-0.241,1.353-0.721,1.787
		C668.02,1628.958,667.446,1629.182,666.784,1629.182z"/>
	<path style="fill-rule:evenodd;clip-rule:evenodd;fill:#FFFFFF;" d="M682.93,1647.431c0.803-0.008,1.566-0.228,2.277-0.657
		c0.731-0.448,1.326-1.105,1.781-1.994c0.465-0.886,0.69-1.96,0.69-3.224c0-2.02-0.444-3.585-1.332-4.706
		c-0.868-1.104-2.01-1.659-3.417-1.68v-3.532c0.759,0.128,1.451,0.354,2.071,0.677c1.023,0.534,1.974,1.382,2.861,2.523v-0.668
		c0-0.851,0.207-1.517,0.633-1.983c0.419-0.475,0.962-0.707,1.62-0.707c0.957,0,1.587,0.317,1.902,0.933
		c0.313,0.613,0.469,1.506,0.469,2.685v14.345c0,1.634-0.17,3.051-0.524,4.232c-0.347,1.186-0.905,2.154-1.681,2.932
		c-0.77,0.766-1.78,1.35-3.028,1.719c-1.177,0.344-2.617,0.533-4.323,0.555v-3.439c1.081-0.035,1.938-0.209,2.567-0.528
		c0.708-0.352,1.197-0.851,1.486-1.49c0.285-0.645,0.44-1.329,0.491-2.05c0.046-0.73,0.09-1.904,0.117-3.521
		c-0.765,1.053-1.642,1.868-2.641,2.42c-0.603,0.337-1.276,0.572-2.021,0.705V1647.431z M678.18,1641.358
		c0,1.995,0.435,3.515,1.311,4.538c0.875,1.019,2.005,1.534,3.393,1.534h0.046v3.545c-0.481,0.085-0.99,0.128-1.53,0.128
		c-1.649,0-3.095-0.423-4.335-1.273c-1.236-0.836-2.184-2.021-2.845-3.544c-0.667-1.519-0.997-3.272-0.997-5.269
		c0-1.472,0.204-2.813,0.606-4.003c0.407-1.197,0.978-2.206,1.725-3.028c0.75-0.824,1.613-1.434,2.592-1.854
		c0.974-0.408,2.048-0.619,3.22-0.619c0.549,0,1.071,0.041,1.564,0.124v3.532l-0.082-0.001c-1.411,0-2.545,0.531-3.392,1.608
		C678.604,1637.85,678.18,1639.37,678.18,1641.358L678.18,1641.358z M682.93,1655.439v3.439l-0.335,0.002
		c-1.699,0-3.223-0.237-4.56-0.715c-1.338-0.476-2.369-1.094-3.094-1.843c-0.719-0.76-1.08-1.525-1.08-2.329
		c0-0.604,0.204-1.088,0.613-1.463c0.408-0.391,0.9-0.579,1.48-0.579c0.725,0,1.358,0.319,1.902,0.956
		c0.264,0.326,0.536,0.66,0.822,0.989c0.285,0.325,0.596,0.613,0.942,0.854c0.34,0.233,0.757,0.407,1.236,0.519
		c0.482,0.114,1.037,0.176,1.664,0.176C682.66,1655.445,682.797,1655.443,682.93,1655.439z"/>
	<path style="fill-rule:evenodd;clip-rule:evenodd;fill:#FFFFFF;" d="M701.971,1634.203v0.605c0.866-1.153,1.816-1.996,2.85-2.524
		c1.025-0.536,2.212-0.807,3.552-0.807c1.301,0,2.467,0.281,3.492,0.842c1.019,0.569,1.788,1.376,2.296,2.411
		c0.323,0.605,0.534,1.259,0.63,1.951c0.098,0.704,0.147,1.593,0.147,2.675v9.197c0,0.989-0.226,1.733-0.676,2.241
		c-0.455,0.51-1.044,0.757-1.766,0.757c-0.737,0-1.331-0.253-1.791-0.774c-0.456-0.52-0.686-1.265-0.686-2.224v-8.232
		c0-1.622-0.225-2.875-0.678-3.74c-0.452-0.859-1.356-1.291-2.708-1.291c-0.88,0-1.682,0.268-2.405,0.787
		c-0.725,0.516-1.253,1.24-1.592,2.158c-0.238,0.745-0.362,2.121-0.362,4.127v6.191c0,0.995-0.233,1.754-0.696,2.253
		c-0.466,0.498-1.066,0.745-1.801,0.745c-0.709,0-1.295-0.253-1.754-0.774c-0.459-0.52-0.685-1.265-0.685-2.224v-14.28
		c0-0.939,0.204-1.64,0.615-2.104c0.41-0.461,0.968-0.692,1.679-0.692c0.432,0,0.828,0.097,1.175,0.303
		c0.347,0.208,0.631,0.513,0.84,0.926C701.864,1633.115,701.971,1633.614,701.971,1634.203z"/>
	<path style="fill-rule:evenodd;clip-rule:evenodd;fill:#FFFFFF;" d="M728.461,1639.924h4.478c-0.124-1.687-0.58-2.951-1.369-3.786
		c-0.785-0.837-1.825-1.256-3.108-1.259v-3.436h0.154c1.928,0,3.583,0.4,4.963,1.224c1.379,0.81,2.416,1.859,3.105,3.15
		c0.686,1.287,1.029,2.607,1.029,3.945c0,1.235-0.357,2.051-1.067,2.417c-0.712,0.367-1.708,0.549-3.004,0.549h-5.18V1639.924
		L728.461,1639.924z M728.461,1651.545v-3.278c0.122,0.008,0.245,0.013,0.369,0.013c0.593,0,1.129-0.065,1.619-0.203
		c0.49-0.132,0.958-0.361,1.423-0.657c0.458-0.293,0.88-0.609,1.265-0.946c0.387-0.338,0.887-0.796,1.499-1.371
		c0.257-0.22,0.62-0.334,1.085-0.334c0.509,0,0.915,0.144,1.23,0.42c0.313,0.274,0.475,0.672,0.475,1.173
		c0,0.449-0.175,0.965-0.53,1.569c-0.347,0.596-0.877,1.171-1.583,1.72c-0.698,0.548-1.586,0.997-2.657,1.369
		c-1.064,0.354-2.297,0.534-3.681,0.534C728.802,1651.553,728.63,1651.55,728.461,1651.545z M723.984,1639.924h4.477v2.805h-4.477
		c0.01,1.124,0.233,2.106,0.675,2.963c0.441,0.862,1.028,1.505,1.752,1.933c0.629,0.381,1.313,0.591,2.05,0.643v3.278
		c-2.927-0.094-5.218-0.997-6.888-2.705c-1.756-1.807-2.639-4.26-2.639-7.354c0-1.464,0.223-2.819,0.652-4.069
		c0.433-1.244,1.068-2.32,1.902-3.213c0.832-0.885,1.851-1.568,3.071-2.05c1.179-0.459,2.472-0.693,3.901-0.71v3.436h-0.013
		c-1.227,0-2.241,0.419-3.03,1.267C724.633,1636.999,724.153,1638.258,723.984,1639.924z"/>
	<path style="fill-rule:evenodd;clip-rule:evenodd;fill:#FFFFFF;" d="M750.414,1647.741c0.862-0.004,1.646-0.232,2.361-0.68
		c0.71-0.451,1.287-1.144,1.718-2.079c0.428-0.942,0.643-2.104,0.643-3.497c0-1.324-0.215-2.453-0.643-3.394
		c-0.431-0.95-1.007-1.681-1.739-2.171c-0.71-0.495-1.491-0.739-2.34-0.75v-3.559c0.802,0.113,1.513,0.325,2.129,0.633
		c0.978,0.487,1.929,1.244,2.86,2.253v-7.289c0-1.016,0.203-1.778,0.607-2.301c0.404-0.525,0.977-0.774,1.729-0.774
		c0.747,0,1.319,0.237,1.725,0.719c0.403,0.473,0.606,1.173,0.606,2.1v21.781c0,0.942-0.215,1.648-0.65,2.115
		c-0.434,0.472-0.999,0.704-1.681,0.704c-0.678,0-1.235-0.234-1.677-0.728c-0.44-0.483-0.66-1.188-0.66-2.092v-0.49
		c-0.665,0.767-1.315,1.376-1.965,1.854c-0.645,0.478-1.346,0.839-2.092,1.088c-0.3,0.099-0.611,0.176-0.932,0.234V1647.741z
		 M745.692,1641.485c0,1.334,0.209,2.473,0.625,3.414c0.417,0.941,0.986,1.646,1.707,2.121c0.726,0.483,1.514,0.721,2.367,0.721
		h0.022v3.679c-0.488,0.089-1,0.133-1.539,0.133c-1.181,0-2.279-0.247-3.286-0.745c-1.004-0.499-1.876-1.215-2.612-2.148
		c-0.738-0.919-1.294-2.018-1.674-3.273c-0.38-1.253-0.571-2.611-0.571-4.072c0-3.083,0.749-5.489,2.262-7.217
		c1.51-1.722,3.493-2.584,5.954-2.584c0.519,0,1.007,0.032,1.466,0.098v3.559l-0.061-0.001c-0.9,0-1.708,0.252-2.42,0.763
		c-0.714,0.513-1.263,1.256-1.657,2.215C745.885,1639.098,745.692,1640.218,745.692,1641.485z"/>
	<path style="fill-rule:evenodd;clip-rule:evenodd;fill:#FFFFFF;" d="M783.805,1647.739l0.162,0.002
		c1.241,0,2.312-0.545,3.211-1.622c0.901-1.079,1.346-2.625,1.346-4.634c0-1.314-0.184-2.424-0.558-3.374
		c-0.374-0.936-0.906-1.667-1.594-2.18c-0.682-0.511-1.49-0.763-2.406-0.763c-0.054,0-0.108,0.001-0.162,0.003v-3.557
		c0.458-0.068,0.947-0.102,1.468-0.102c1.638,0,3.076,0.394,4.311,1.165c1.237,0.773,2.197,1.9,2.875,3.388
		c0.687,1.467,1.024,3.224,1.024,5.248c0,1.505-0.189,2.872-0.569,4.116c-0.379,1.247-0.933,2.335-1.656,3.247
		c-0.723,0.915-1.6,1.631-2.631,2.13c-1.029,0.498-2.166,0.745-3.408,0.745c-0.49,0-0.961-0.037-1.413-0.11V1647.739z
		 M779.085,1641.623c0,1.969,0.448,3.479,1.344,4.532c0.867,1.017,1.991,1.546,3.375,1.584v3.703
		c-0.25-0.041-0.494-0.093-0.732-0.156c-0.667-0.183-1.238-0.423-1.708-0.722c-0.469-0.29-0.871-0.593-1.21-0.91
		c-0.324-0.311-0.765-0.782-1.303-1.411v0.49c0,0.93-0.223,1.631-0.675,2.115c-0.442,0.472-1.01,0.704-1.699,0.704
		c-0.697,0-1.257-0.232-1.674-0.704c-0.415-0.484-0.625-1.186-0.625-2.115l0.001-21.57c0-0.988,0.204-1.748,0.606-2.262
		c0.409-0.52,0.967-0.769,1.692-0.769c0.761,0,1.345,0.241,1.756,0.736c0.408,0.49,0.618,1.182,0.618,2.083v7.545
		c0.926-0.968,1.873-1.704,2.836-2.212c0.616-0.33,1.32-0.552,2.117-0.67v3.557c-0.874,0.027-1.655,0.279-2.349,0.76
		c-0.734,0.513-1.32,1.256-1.741,2.23C779.292,1639.138,779.085,1640.285,779.085,1641.623z"/>
	<path style="fill-rule:evenodd;clip-rule:evenodd;fill:#FFFFFF;" d="M801.516,1652.171l0.453-1.103l-6.081-15.304
		c-0.372-0.886-0.562-1.525-0.562-1.913c0-0.42,0.112-0.827,0.331-1.185c0.214-0.364,0.512-0.649,0.893-0.863
		c0.378-0.22,0.775-0.325,1.186-0.325c0.712,0,1.247,0.224,1.608,0.675c0.361,0.452,0.687,1.1,0.961,1.944l4.18,12.157l3.956-11.307
		c0.315-0.92,0.604-1.63,0.852-2.152c0.253-0.52,0.525-0.868,0.81-1.045c0.28-0.185,0.68-0.272,1.2-0.272
		c0.375,0,0.732,0.097,1.075,0.303c0.348,0.193,0.609,0.463,0.794,0.8c0.189,0.338,0.282,0.693,0.282,1.066
		c-0.043,0.22-0.127,0.551-0.231,0.971c-0.109,0.431-0.245,0.865-0.402,1.294l-6.438,16.853c-0.555,1.494-1.095,2.646-1.63,3.488
		c-0.526,0.852-1.227,1.497-2.105,1.948c-0.878,0.454-2.055,0.68-3.535,0.68c-1.447,0-2.533-0.16-3.257-0.469
		c-0.723-0.311-1.084-0.883-1.084-1.716c0-0.569,0.17-1.003,0.513-1.315c0.346-0.317,0.854-0.464,1.533-0.464
		c0.26,0,0.522,0.039,0.777,0.112c0.313,0.07,0.583,0.103,0.814,0.103c0.566,0,1.011-0.08,1.334-0.253
		c0.329-0.158,0.623-0.457,0.879-0.874C800.877,1653.592,801.18,1652.979,801.516,1652.171z"/>
	<path style="fill-rule:evenodd;clip-rule:evenodd;fill:#FFFFFF;" d="M892.9,1631.909h1.18v-1.484c0-1.546,0.197-2.771,0.593-3.676
		c0.382-0.911,1.05-1.577,1.986-1.991c0.937-0.42,2.214-0.625,3.851-0.625c2.871,0,4.322,0.704,4.322,2.115
		c0,0.452-0.159,0.845-0.459,1.177c-0.301,0.325-0.652,0.492-1.069,0.492c-0.192,0-0.526-0.035-0.994-0.114
		c-0.469-0.07-0.862-0.105-1.193-0.105c-0.894,0-1.465,0.262-1.715,0.783c-0.256,0.528-0.385,1.279-0.385,2.247v1.182h1.214
		c1.884,0,2.826,0.572,2.826,1.701c0,0.805-0.252,1.321-0.751,1.535c-0.504,0.217-1.192,0.337-2.075,0.337h-1.214v13.072
		c0,0.974-0.236,1.72-0.693,2.238c-0.462,0.513-1.063,0.76-1.805,0.76c-0.695,0-1.279-0.247-1.742-0.76
		c-0.464-0.519-0.696-1.265-0.696-2.238v-13.072h-1.357c-0.736,0-1.297-0.173-1.701-0.514c-0.396-0.327-0.6-0.756-0.6-1.284
		C890.422,1632.5,891.255,1631.909,892.9,1631.909z"/>
	<path style="fill-rule:evenodd;clip-rule:evenodd;fill:#FFFFFF;" d="M910.543,1644.424v4.131c0,0.995-0.232,1.754-0.703,2.253
		c-0.472,0.498-1.063,0.745-1.797,0.745c-0.699,0-1.291-0.247-1.748-0.757c-0.459-0.508-0.69-1.252-0.69-2.241v-13.746
		c0-2.228,0.799-3.33,2.4-3.33c0.823,0,1.415,0.258,1.778,0.774c0.367,0.513,0.561,1.285,0.598,2.297
		c0.592-1.012,1.199-1.784,1.817-2.297c0.622-0.517,1.45-0.774,2.49-0.774c1.034,0,2.043,0.258,3.018,0.774
		c0.983,0.513,1.463,1.205,1.463,2.056c0,0.613-0.201,1.104-0.621,1.5c-0.421,0.39-0.859,0.583-1.352,0.583
		c-0.177,0-0.613-0.107-1.307-0.325c-0.694-0.231-1.304-0.343-1.842-0.343c-0.719,0-1.313,0.196-1.767,0.581
		c-0.459,0.371-0.816,0.936-1.072,1.683c-0.249,0.749-0.424,1.641-0.523,2.673C910.589,1641.688,910.543,1642.945,910.543,1644.424z
		"/>
	<path style="fill-rule:evenodd;clip-rule:evenodd;fill:#FFFFFF;" d="M929.548,1639.924h4.477c-0.128-1.687-0.576-2.951-1.363-3.786
		c-0.788-0.838-1.83-1.257-3.113-1.259v-3.436h0.157c1.926,0,3.574,0.4,4.954,1.224c1.385,0.81,2.421,1.859,3.108,3.15
		c0.685,1.287,1.033,2.607,1.033,3.945c0.001,1.235-0.354,2.051-1.069,2.417c-0.711,0.367-1.706,0.549-3.003,0.549h-5.181V1639.924
		L929.548,1639.924z M929.548,1651.545v-3.278c0.122,0.008,0.245,0.013,0.371,0.013c0.592,0,1.129-0.065,1.618-0.203
		c0.484-0.132,0.965-0.361,1.416-0.657c0.462-0.293,0.885-0.609,1.273-0.946c0.381-0.338,0.889-0.796,1.492-1.371
		c0.259-0.22,0.628-0.334,1.094-0.334c0.502,0,0.913,0.144,1.226,0.42c0.313,0.274,0.469,0.672,0.469,1.173
		c0,0.449-0.169,0.965-0.522,1.569c-0.354,0.596-0.877,1.171-1.574,1.72c-0.709,0.548-1.599,0.997-2.667,1.369
		c-1.07,0.354-2.292,0.534-3.681,0.534C929.889,1651.553,929.717,1651.55,929.548,1651.545z M925.07,1639.924h4.478v2.805h-4.478
		c0.018,1.124,0.237,2.106,0.676,2.963c0.441,0.862,1.018,1.505,1.763,1.933c0.622,0.381,1.302,0.59,2.039,0.643v3.278
		c-2.929-0.094-5.226-0.998-6.881-2.705c-1.764-1.807-2.647-4.26-2.647-7.354c0-1.464,0.217-2.819,0.655-4.069
		c0.433-1.244,1.066-2.32,1.896-3.213c0.829-0.885,1.859-1.568,3.081-2.05c1.168-0.459,2.467-0.693,3.896-0.71v3.436h-0.011
		c-1.228,0-2.241,0.419-3.037,1.267C925.717,1636.999,925.238,1638.258,925.07,1639.924z"/>
	<path style="fill-rule:evenodd;clip-rule:evenodd;fill:#FFFFFF;" d="M951.56,1639.924h4.474c-0.126-1.687-0.576-2.951-1.357-3.786
		c-0.794-0.838-1.823-1.257-3.116-1.259v-3.436h0.148c1.938,0,3.593,0.4,4.972,1.224c1.376,0.81,2.418,1.859,3.105,3.15
		c0.688,1.287,1.027,2.607,1.027,3.945c0,1.235-0.359,2.051-1.069,2.417c-0.705,0.367-1.702,0.549-3,0.549h-5.184V1639.924
		L951.56,1639.924z M951.56,1651.545v-3.278c0.121,0.009,0.245,0.013,0.37,0.013c0.592,0,1.127-0.065,1.614-0.203
		c0.495-0.132,0.97-0.361,1.42-0.657c0.463-0.293,0.887-0.609,1.273-0.946c0.388-0.338,0.893-0.796,1.506-1.371
		c0.252-0.22,0.601-0.334,1.078-0.334c0.511,0,0.922,0.144,1.234,0.42c0.307,0.274,0.466,0.672,0.466,1.173
		c0,0.449-0.171,0.965-0.517,1.569c-0.354,0.596-0.886,1.171-1.593,1.72c-0.702,0.548-1.589,0.997-2.652,1.369
		c-1.075,0.354-2.298,0.534-3.685,0.534C951.901,1651.553,951.73,1651.55,951.56,1651.545z M947.086,1639.924h4.475v2.805h-4.475
		c0.012,1.124,0.24,2.106,0.676,2.963c0.441,0.862,1.027,1.505,1.755,1.933c0.631,0.381,1.309,0.59,2.044,0.643v3.278
		c-2.921-0.094-5.217-0.998-6.881-2.705c-1.763-1.807-2.641-4.26-2.641-7.354c0-1.464,0.223-2.819,0.641-4.069
		c0.444-1.244,1.075-2.32,1.907-3.213c0.826-0.885,1.854-1.568,3.079-2.05c1.178-0.46,2.478-0.694,3.894-0.71v3.436h-0.011
		c-1.231,0-2.238,0.419-3.028,1.267C947.734,1636.999,947.245,1638.258,947.086,1639.924z"/>
	<path style="fill-rule:evenodd;clip-rule:evenodd;fill:#FFFFFF;" d="M978.715,1641.426c0-1.305-0.189-2.42-0.592-3.355
		c-0.4-0.936-0.943-1.66-1.652-2.15c-0.703-0.507-1.484-0.751-2.34-0.751l-0.136,0.002v-3.548c0.431-0.073,0.878-0.109,1.343-0.109
		c1.521,0,2.917,0.394,4.2,1.174c1.279,0.789,2.288,1.93,3.034,3.438c0.732,1.503,1.104,3.285,1.104,5.36
		c0,1.514-0.216,2.906-0.64,4.183c-0.43,1.267-1.012,2.344-1.763,3.2c-0.749,0.856-1.629,1.532-2.644,1.995
		c-1.021,0.463-2.123,0.689-3.292,0.689c-0.472,0-0.92-0.031-1.343-0.096v-3.718l0.136,0.002c0.822,0,1.579-0.237,2.276-0.721
		c0.7-0.476,1.262-1.18,1.68-2.139C978.504,1643.929,978.715,1642.775,978.715,1641.426z M973.995,1635.171
		c-1.299,0.034-2.407,0.564-3.31,1.605c-0.937,1.073-1.408,2.652-1.408,4.743c0,1.96,0.466,3.485,1.399,4.579
		c0.893,1.063,2,1.606,3.319,1.641v3.718c-0.836-0.126-1.573-0.377-2.208-0.755c-0.964-0.563-1.874-1.388-2.745-2.494v7.416
		c0,2.174-0.793,3.256-2.361,3.256c-0.934,0-1.545-0.28-1.854-0.842c-0.301-0.557-0.444-1.381-0.444-2.452v-21.312
		c0-0.939,0.207-1.64,0.607-2.104c0.414-0.461,0.973-0.692,1.69-0.692c0.694,0,1.265,0.231,1.703,0.71
		c0.442,0.479,0.658,1.164,0.658,2.051v0.598c0.94-1.141,1.898-1.988,2.901-2.523c0.63-0.337,1.314-0.567,2.052-0.691V1635.171z"/>
	<path style="fill-rule:evenodd;clip-rule:evenodd;fill:#FFFFFF;" d="M992.58,1634.274v14.28c0,0.989-0.24,1.733-0.708,2.241
		c-0.469,0.51-1.062,0.757-1.791,0.757c-0.724,0-1.304-0.253-1.764-0.774c-0.453-0.52-0.675-1.265-0.675-2.224v-14.128
		c0-0.975,0.222-1.72,0.675-2.203c0.46-0.499,1.04-0.745,1.764-0.745c0.729,0,1.322,0.246,1.791,0.745
		C992.34,1632.707,992.58,1633.397,992.58,1634.274L992.58,1634.274z M990.144,1629.182c-0.694,0-1.292-0.22-1.772-0.634
		c-0.482-0.422-0.729-1.021-0.729-1.793c0-0.698,0.252-1.278,0.75-1.728c0.496-0.458,1.082-0.68,1.752-0.68
		c0.631,0,1.201,0.201,1.697,0.609c0.492,0.42,0.738,1.015,0.738,1.798c0,0.76-0.243,1.353-0.724,1.787
		C991.377,1628.958,990.799,1629.182,990.144,1629.182z"/>
	<path style="fill-rule:evenodd;clip-rule:evenodd;fill:#FFFFFF;" d="M1009.985,1649.291l-4.367-7.161l-2.68,2.538v3.924
		c0,0.952-0.24,1.683-0.736,2.201c-0.514,0.513-1.087,0.76-1.727,0.76c-0.766,0-1.363-0.247-1.796-0.757
		c-0.438-0.508-0.652-1.252-0.652-2.241v-21.057c0-1.1,0.201-1.936,0.625-2.506c0.433-0.575,1.033-0.859,1.823-0.859
		c0.757,0,1.354,0.249,1.806,0.774c0.441,0.522,0.658,1.285,0.658,2.301v11.977l5.561-5.832c0.69-0.718,1.21-1.214,1.564-1.481
		c0.37-0.264,0.811-0.393,1.325-0.393c0.621,0,1.126,0.188,1.546,0.587c0.4,0.393,0.613,0.88,0.613,1.473
		c0,0.722-0.67,1.692-2.013,2.898l-2.616,2.399l5.059,7.964c0.385,0.59,0.65,1.042,0.805,1.344c0.169,0.306,0.244,0.604,0.244,0.874
		c0,0.792-0.208,1.405-0.644,1.862c-0.426,0.446-0.997,0.673-1.685,0.673c-0.607,0-1.073-0.159-1.397-0.484
		C1010.979,1650.743,1010.538,1650.147,1009.985,1649.291z"/>
	<path style="fill-rule:evenodd;clip-rule:evenodd;fill:#FFFFFF;" d="M1022.19,1651.553c-0.744,0-1.388-0.234-1.929-0.725
		c-0.544-0.479-0.825-1.152-0.825-2.03c0-0.727,0.267-1.363,0.78-1.894c0.525-0.528,1.168-0.79,1.923-0.79
		c0.76,0,1.402,0.262,1.943,0.781c0.534,0.524,0.805,1.158,0.805,1.903c0.001,0.865-0.271,1.544-0.805,2.027
		C1023.542,1651.318,1022.917,1651.553,1022.19,1651.553z"/>
	<path style="fill-rule:evenodd;clip-rule:evenodd;fill:#FFFFFF;" d="M1048.229,1645.439c0,0.619-0.189,1.273-0.559,1.974
		c-0.366,0.704-0.925,1.364-1.674,2.004c-0.753,0.631-1.709,1.138-2.848,1.52c-1.149,0.39-2.445,0.581-3.878,0.581
		c-3.055,0-5.431-0.892-7.146-2.67c-1.709-1.771-2.572-4.159-2.572-7.146c0-2.039,0.397-3.826,1.181-5.384
		c0.778-1.551,1.92-2.754,3.406-3.599c1.479-0.854,3.251-1.276,5.312-1.276c1.277,0,2.445,0.182,3.518,0.555
		c1.072,0.378,1.97,0.851,2.715,1.454c0.739,0.584,1.308,1.216,1.703,1.884c0.391,0.675,0.584,1.297,0.584,1.874
		c0,0.597-0.221,1.098-0.665,1.506c-0.435,0.408-0.97,0.609-1.595,0.609c-0.414,0-0.76-0.105-1.027-0.313
		c-0.267-0.208-0.573-0.545-0.907-1.024c-0.606-0.912-1.234-1.604-1.892-2.062c-0.655-0.458-1.494-0.681-2.503-0.681
		c-1.459,0-2.635,0.563-3.527,1.707c-0.889,1.139-1.345,2.691-1.345,4.671c0,0.93,0.11,1.786,0.349,2.564
		c0.226,0.774,0.558,1.435,0.996,1.991c0.421,0.54,0.959,0.963,1.568,1.241c0.616,0.288,1.298,0.432,2.028,0.432
		c0.979,0,1.836-0.237,2.542-0.689c0.708-0.463,1.327-1.153,1.874-2.101c0.301-0.557,0.631-0.988,0.979-1.3
		c0.346-0.316,0.772-0.469,1.277-0.469c0.612,0,1.105,0.229,1.505,0.686C1048.021,1644.438,1048.229,1644.926,1048.229,1645.439z"/>
	<path style="fill-rule:evenodd;clip-rule:evenodd;fill:#FFFFFF;" d="M1066.065,1641.52c0-2.018-0.452-3.585-1.337-4.705
		c-0.875-1.114-2.051-1.678-3.541-1.686v-3.649c1.493,0.004,2.833,0.25,4.044,0.716c1.213,0.484,2.258,1.167,3.126,2.065
		c0.875,0.897,1.529,1.957,1.977,3.188c0.46,1.232,0.683,2.585,0.683,4.071c0,1.464-0.223,2.823-0.685,4.06
		c-0.463,1.251-1.131,2.315-1.995,3.204c-0.868,0.893-1.898,1.581-3.105,2.065c-1.201,0.469-2.55,0.7-4.044,0.704v-3.676
		c1.49-0.009,2.666-0.566,3.541-1.69C1065.613,1645.06,1066.065,1643.5,1066.065,1641.52z M1061.188,1635.128l-0.036-0.001
		c-0.958,0-1.809,0.25-2.548,0.749c-0.726,0.508-1.298,1.244-1.703,2.215c-0.39,0.982-0.591,2.127-0.591,3.429
		c0,1.291,0.194,2.414,0.591,3.38c0.392,0.965,0.95,1.698,1.676,2.215c0.733,0.51,1.593,0.763,2.575,0.763h0.036v3.676h-0.036
		c-1.484,0-2.833-0.234-4.032-0.725c-1.186-0.479-2.22-1.165-3.103-2.065c-0.867-0.901-1.534-1.963-1.976-3.184
		c-0.46-1.226-0.688-2.58-0.688-4.06c0-1.498,0.229-2.866,0.7-4.112c0.447-1.238,1.108-2.303,1.955-3.184
		c0.859-0.877,1.898-1.557,3.111-2.035c1.227-0.479,2.566-0.71,4.032-0.71h0.036V1635.128z"/>
	<path style="fill-rule:evenodd;clip-rule:evenodd;fill:#FFFFFF;" d="M1091.335,1641.878v6.563c0,1.038-0.237,1.818-0.709,2.338
		c-0.465,0.521-1.091,0.774-1.865,0.774c-0.745,0-1.353-0.253-1.814-0.774c-0.466-0.52-0.7-1.3-0.7-2.338v-7.868
		c0-1.247-0.045-2.194-0.126-2.89c-0.084-0.692-0.313-1.255-0.688-1.692c-0.37-0.443-0.965-0.654-1.773-0.654
		c-1.612,0-2.676,0.549-3.184,1.654c-0.514,1.112-0.769,2.702-0.769,4.779v6.671c0,1.028-0.24,1.798-0.709,2.325
		c-0.453,0.526-1.07,0.787-1.83,0.787c-0.744,0-1.354-0.261-1.838-0.787c-0.478-0.527-0.716-1.297-0.716-2.325l0.001-14.132
		c0-0.921,0.216-1.63,0.643-2.114c0.433-0.47,0.997-0.716,1.691-0.716c0.676,0,1.244,0.224,1.69,0.675
		c0.458,0.452,0.68,1.082,0.68,1.875v0.469c0.861-1.021,1.775-1.777,2.751-2.265c0.98-0.473,2.064-0.719,3.254-0.719
		c1.247,0,2.313,0.246,3.199,0.739c0.895,0.495,1.638,1.244,2.211,2.244c0.832-1.009,1.728-1.766,2.679-2.253
		c0.95-0.484,2.008-0.73,3.17-0.73c1.346,0,2.511,0.267,3.484,0.789c0.979,0.546,1.703,1.297,2.184,2.279
		c0.433,0.9,0.64,2.306,0.64,4.222v9.637c0,1.038-0.243,1.818-0.712,2.338c-0.458,0.521-1.077,0.774-1.858,0.774
		c-0.739,0-1.358-0.261-1.83-0.787c-0.483-0.527-0.718-1.297-0.718-2.325v-8.302c0-1.054-0.042-1.907-0.132-2.556
		c-0.099-0.631-0.337-1.173-0.736-1.602c-0.396-0.434-1.004-0.645-1.812-0.645c-0.651,0-1.262,0.19-1.851,0.575
		c-0.58,0.381-1.039,0.903-1.37,1.555C1091.512,1638.296,1091.335,1639.763,1091.335,1641.878z"/>
	<path style="fill-rule:evenodd;clip-rule:evenodd;fill:#FFFFFF;" d="M853.99,1618.747c-0.1-0.323-0.205-0.634-0.308-0.95
		c1.655-0.152,2.773-2.142,1.96-3.615c-0.395-0.881-1.301-1.352-2.211-1.372h-0.107c-0.768,0.014-1.524,0.349-1.968,1.033
		c-1.056,1.34-0.235,3.47,1.388,3.907c0.097,0.331,0.193,0.674,0.296,1.023c-2.487,0.161-5.024,0.719-7.111,2.138
		c0.214,0.591,0.432,1.201,0.643,1.814c4.21-1.849,8.93-1.449,13.368-1.007c0.147-0.584,0.294-1.174,0.446-1.758
		C858.377,1619.058,856.174,1618.727,853.99,1618.747z"/>
	<path style="fill-rule:evenodd;clip-rule:evenodd;fill:#FFFFFF;" d="M879.019,1625.535c-0.662,0.343-0.792,1.145-0.748,1.813
		c-0.745,0.723-0.393,1.808-0.472,2.711c-0.168,0.505-0.775,0.563-1.197,0.751c-0.581-0.88-1.197-1.733-1.979-2.458l0.008-0.041
		c-0.851-0.796-1.766-1.52-2.736-2.15c-0.775,0.836-1.594,1.654-2.338,2.524c1.479,1.63,2.848,3.379,4.06,5.218
		c0.836,1.405,1.505,2.896,2.083,4.421c1.252-0.64,2.486-1.308,3.743-1.974c-0.663-1.521-1.414-3.014-2.221-4.478
		c0.558-0.296,1.299-0.583,1.384-1.308c0.065-0.802-0.113-1.667,0.365-2.367c0.967,0.634,2.436-0.077,2.452-1.256
		C881.551,1625.723,880.021,1624.852,879.019,1625.535z"/>
	<path style="fill-rule:evenodd;clip-rule:evenodd;fill:#FFFFFF;" d="M869.207,1635.661c-0.296,2.034-2.231,3.756-4.309,3.63v8.155
		c3.813-1.026,7.499-2.53,10.906-4.53c0,0-0.719-3.969-3.547-8.299c-1.631-2.704-3.396-5.395-5.796-7.48
		c-0.495-0.437-1.018-0.848-1.563-1.229v4.714c0.523,0.012,1.047,0.11,1.551,0.231
		C868.353,1631.528,869.601,1633.679,869.207,1635.661z M864.898,1639.291l-0.016-0.001c-1.202,0.099-2.361-0.469-3.18-1.319
		c-0.586-0.729-1.071-1.566-1.15-2.523c-0.284-2.064,1.174-4.2,3.195-4.685c0.378-0.111,0.764-0.149,1.15-0.141v-4.714
		c-2.5-1.745-5.48-2.847-8.543-2.834c-3.776-0.045-7.591,0.433-11.189,1.596v4.48c0.665,0.002,1.331,0.095,1.972,0.274
		c0.727,0.185,1.396,0.522,2.018,0.941c1.285,0.907,2.25,2.25,2.679,3.771c0.598,1.95,0.217,4.137-0.919,5.822
		c-0.82,1.188-1.991,2.106-3.337,2.629c-0.77,0.286-1.592,0.426-2.413,0.426v6.048l0.191,0.01c4.415,0.134,8.866,0.246,13.252-0.376
		c2.118-0.277,4.224-0.693,6.29-1.249V1639.291z M845.166,1624.67v4.48c-1.138-0.004-2.272,0.258-3.276,0.803
		c-2.089,1.111-3.56,3.329-3.658,5.708c-0.138,1.907,0.619,3.8,1.893,5.205c1.273,1.405,3.158,2.146,5.042,2.147v6.048
		c-4.414-0.226-8.763-1.183-13.043-2.252c-0.784-3.964-0.805-8.256,0.934-11.981c1.802-4.145,5.361-7.354,9.461-9.158
		C843.385,1625.292,844.269,1624.96,845.166,1624.67z"/>
	<path style="fill-rule:evenodd;clip-rule:evenodd;fill:#FFFFFF;" d="M833.11,1628.577c-1.765,1.065-3.214,2.565-4.422,4.219
		c-0.354-0.657-0.462-1.438-0.923-2.024c-0.262-0.353-0.733-0.208-1.101-0.214c-0.468,0.049-0.921-0.077-1.363-0.211
		c0.513-0.728,0.379-1.84-0.413-2.313c-0.843-0.609-2.15-0.082-2.373,0.924c-0.355,1.101,0.818,2.204,1.898,1.916
		c0.572,0.851,1.606,0.71,2.49,0.742c0.396,0.687,0.701,1.443,1.207,2.068c-0.946,1.862-1.48,3.949-1.521,6.043
		c1.214,0.505,2.424,1.026,3.646,1.532c0.059-1.327,0.211-2.635,0.412-3.926c0.408-2.837,2.047-5.301,3.991-7.331
		C834.153,1629.495,833.615,1629.056,833.11,1628.577z"/>
	<path style="fill-rule:evenodd;clip-rule:evenodd;fill:#FFFFFF;" d="M861.491,1649.937c-4.476,0.977-9.091,1.264-13.664,1.064
		c-3.092-0.158-6.184-0.446-9.209-1.114c-2.139-0.435-4.236-1.054-6.345-1.658c0.338,2.69,1.426,5.266,2.979,7.484
		c1.833,2.578,4.283,4.945,7.335,5.899c2.233,0.599,4.872,1.357,9.22,1.378h0.44l0.451-0.006c4.046-0.07,8.022-0.583,11.57-2.095
		c2.288-0.982,4.436-2.326,6.281-4.004c1.59-1.502,2.84-3.373,3.701-5.383c0.834-1.898,1.582-5.316,1.502-7.061
		C871.375,1646.933,866.478,1649.101,861.491,1649.937z"/>
</g>
<path style="fill-rule:evenodd;clip-rule:evenodd;fill:#FFFFFF;" d="M1700.787,1700.787
	C897.158,1583.813,203.785,1087.957,0,324.315v1376.472H1700.787L1700.787,1700.787z"/>
<circle style="fill-rule:evenodd;clip-rule:evenodd;fill:#FFFFFF;" cx="601.69" cy="1297.991" r="280.366"/>
<ellipse transform="matrix(0.7071 -0.7071 0.7071 0.7071 -741.5875 805.6318)" style="fill-rule:evenodd;clip-rule:evenodd;fill:#CFB6FA;" cx="601.69" cy="1297.991" rx="226.616" ry="226.616"/>
<ellipse transform="matrix(0.7071 -0.7071 0.7071 0.7071 -799.2996 1093.9001)" style="fill-rule:evenodd;clip-rule:evenodd;fill:#FFFFFF;" cx="920.805" cy="1511.79" rx="155.991" ry="155.991"/>
<ellipse transform="matrix(0.7071 -0.7071 0.7071 0.7071 -799.2995 1093.9003)" style="fill-rule:evenodd;clip-rule:evenodd;fill:#CFB6FA;" cx="920.805" cy="1511.79" rx="102.985" ry="102.985"/>
<ellipse transform="matrix(0.7071 -0.7071 0.7071 0.7071 -599.5342 502.7297)" style="fill-rule:evenodd;clip-rule:evenodd;fill:#FFFFFF;" cx="307.081" cy="975.067" rx="211.134" ry="211.133"/>
<circle style="fill-rule:evenodd;clip-rule:evenodd;fill:#CFB6FA;" cx="307.081" cy="975.067" r="157.963"/>
<ellipse transform="matrix(0.7071 -0.7071 0.7071 0.7071 -598.9711 1060.026)" style="fill-rule:evenodd;clip-rule:evenodd;fill:#FFFFFF;" cx="980.079" cy="1253.035" rx="155.991" ry="155.991"/>
<ellipse transform="matrix(0.9412 -0.3377 0.3377 0.9412 -365.6002 404.6252)" style="fill-rule:evenodd;clip-rule:evenodd;fill:#CFB6FA;" cx="980.079" cy="1253.035" rx="102.986" ry="102.985"/>
<circle style="fill-rule:evenodd;clip-rule:evenodd;fill:#FFFFFF;" cx="1124.091" cy="1566.284" r="103.125"/>
<circle style="fill-rule:evenodd;clip-rule:evenodd;fill:#CFB6FA;" cx="1124.091" cy="1566.284" r="49.703"/>
<ellipse transform="matrix(0.2172 -0.9761 0.9761 0.2172 -596.9324 758.8178)" style="fill-rule:evenodd;clip-rule:evenodd;fill:#FFFFFF;" cx="174.658" cy="751.597" rx="103.125" ry="103.125"/>
<ellipse transform="matrix(0.3052 -0.9523 0.9523 0.3052 -594.3864 688.5536)" style="fill-rule:evenodd;clip-rule:evenodd;fill:#CFB6FA;" cx="174.658" cy="751.597" rx="49.703" ry="49.703"/>
<path style="fill-rule:evenodd;clip-rule:evenodd;fill:#FFFFFF;" d="M1316.177,1501.126c86.151,0,155.991,69.84,155.991,155.991
	c0,15.16-2.172,29.812-6.205,43.67h-299.572c-4.034-13.858-6.205-28.51-6.205-43.67
	C1160.186,1570.966,1230.025,1501.126,1316.177,1501.126z"/>
<path style="fill-rule:evenodd;clip-rule:evenodd;fill:#CFB6FA;" d="M1316.177,1554.131c56.877,0,102.985,46.108,102.985,102.986
	c0,15.613-3.48,30.411-9.698,43.67H1222.89c-6.218-13.259-9.698-28.057-9.698-43.67
	C1213.191,1600.239,1259.299,1554.131,1316.177,1554.131z"/>
<path style="fill-rule:evenodd;clip-rule:evenodd;fill:#FFFFFF;" d="M1521.734,1588.349c56.955,0,103.126,46.171,103.126,103.126
	c0,3.14-0.149,6.244-0.424,9.313h-205.403c-0.275-3.068-0.424-6.173-0.424-9.313
	C1418.609,1634.52,1464.78,1588.349,1521.734,1588.349z"/>
<path style="fill-rule:evenodd;clip-rule:evenodd;fill:#CFB6FA;" d="M1521.734,1641.771c27.45,0,49.703,22.253,49.703,49.704
	c0,3.183-0.303,6.295-0.875,9.313h-97.656c-0.572-3.018-0.875-6.13-0.875-9.313
	C1472.031,1664.023,1494.284,1641.771,1521.734,1641.771z"/>
<path style="fill-rule:evenodd;clip-rule:evenodd;fill:#FFFFFF;" d="M1578.798,1700.787c-6.625-17.31-10.265-36.097-10.265-55.735
	c0-78.081,57.368-142.764,132.254-154.196v209.932H1578.798z"/>
<path style="fill-rule:evenodd;clip-rule:evenodd;fill:#CFB6FA;" d="M1637.913,1700.787c-10.359-16.065-16.374-35.198-16.374-55.735
	c0-48.707,33.815-89.512,79.248-100.231v155.967H1637.913z"/>
<path style="fill-rule:evenodd;clip-rule:evenodd;fill:#FFFFFF;" d="M67.887,415.313c86.151,0,155.991,69.84,155.991,155.991
	c0,86.151-69.84,155.991-155.991,155.991c-24.333,0-47.362-5.574-67.887-15.511v-280.96
	C20.524,420.888,43.554,415.313,67.887,415.313z"/>
<path style="fill-rule:evenodd;clip-rule:evenodd;fill:#CFB6FA;" d="M67.887,468.319c56.877,0,102.986,46.108,102.986,102.985
	c0,56.877-46.108,102.985-102.986,102.985c-26.008,0-49.761-9.646-67.887-25.548V493.868
	C18.126,477.964,41.878,468.319,67.887,468.319z"/>
<path style="fill-rule:evenodd;clip-rule:evenodd;fill:#FFFFFF;" d="M44.785,264.791c56.955,0,103.126,46.171,103.126,103.126
	c0,56.954-46.171,103.125-103.126,103.125c-16.048,0-31.24-3.667-44.785-10.207V274.998
	C13.544,268.458,28.736,264.791,44.785,264.791z"/>
<path style="fill-rule:evenodd;clip-rule:evenodd;fill:#CFB6FA;" d="M44.785,318.214c27.45,0,49.704,22.252,49.704,49.703
	c0,27.45-22.253,49.703-49.704,49.703c-19.716,0-36.751-11.48-44.785-28.121v-43.165C8.034,329.694,25.069,318.214,44.785,318.214z"
	/>
<path style="fill-rule:evenodd;clip-rule:evenodd;fill:#FFFFFF;" d="M6.53,3.346c86.151,0,155.991,69.839,155.991,155.991
	c0,86.152-69.84,155.992-155.991,155.992c-2.188,0-4.363-0.057-6.53-0.146V3.491C2.167,3.402,4.341,3.346,6.53,3.346z"/>
<path style="fill-rule:evenodd;clip-rule:evenodd;fill:#CFB6FA;" d="M6.53,56.351c56.877,0,102.986,46.108,102.986,102.985
	c0,56.878-46.108,102.985-102.986,102.985c-2.194,0-4.37-0.077-6.53-0.212V56.563C2.16,56.428,4.335,56.351,6.53,56.351z"/>
<circle style="fill-rule:evenodd;clip-rule:evenodd;fill:#FFFFFF;" cx="1487.276" cy="1237.506" r="103.125"/>
<path style="fill-rule:evenodd;clip-rule:evenodd;fill:#CFB6FA;" d="M1487.276,1187.802c27.45,0,49.703,22.253,49.703,49.704
	c0,27.449-22.253,49.702-49.703,49.702s-49.703-22.253-49.703-49.702C1437.573,1210.055,1459.826,1187.802,1487.276,1187.802z"/>
<ellipse transform="matrix(0.7071 -0.7071 0.7071 0.7071 34.0769 362.8721)" style="fill-rule:evenodd;clip-rule:evenodd;fill:#FFFFFF;" cx="455.064" cy="140.302" rx="103.125" ry="103.125"/>
<ellipse transform="matrix(0.8101 -0.5863 0.5863 0.8101 4.1699 293.4757)" style="fill-rule:evenodd;clip-rule:evenodd;fill:#CFB6FA;" cx="455.064" cy="140.302" rx="49.703" ry="49.703"/>
<g>
	
		<ellipse transform="matrix(0.987 -0.1606 0.1606 0.987 -235.6092 49.3457)" style="fill-rule:evenodd;clip-rule:evenodd;fill:#CFB6FA;" cx="187.453" cy="1482.178" rx="103.125" ry="103.126"/>
	
		<ellipse transform="matrix(0.1671 -0.9859 0.9859 0.1671 -1305.2087 1419.3298)" style="fill-rule:evenodd;clip-rule:evenodd;fill:#FFFFFF;" cx="187.453" cy="1482.178" rx="49.703" ry="49.703"/>
	<path style="fill-rule:evenodd;clip-rule:evenodd;fill:#CFB6FA;" d="M319.971,1491.337c86.151,0,155.991,69.84,155.991,155.991
		c0,18.779-3.321,36.783-9.403,53.459H173.384c-6.083-16.676-9.404-34.68-9.404-53.459
		C163.98,1561.177,233.82,1491.337,319.971,1491.337z"/>
	<path style="fill-rule:evenodd;clip-rule:evenodd;fill:#FFFFFF;" d="M319.971,1544.342c56.877,0,102.986,46.108,102.986,102.986
		c0,19.575-5.463,37.875-14.946,53.459h-176.08c-9.483-15.584-14.946-33.884-14.946-53.459
		C216.985,1590.45,263.094,1544.342,319.971,1544.342z"/>
	<path style="fill-rule:evenodd;clip-rule:evenodd;fill:#CFB6FA;" d="M552.821,1621.3c58.35,0,109.209,32.043,135.963,79.487
		H416.859C443.613,1653.343,494.471,1621.3,552.821,1621.3z"/>
	<path style="fill-rule:evenodd;clip-rule:evenodd;fill:#FFFFFF;" d="M552.821,1674.306c26.514,0,50.685,10.022,68.938,26.481
		H483.883C502.137,1684.328,526.308,1674.306,552.821,1674.306z"/>
	<path style="fill-rule:evenodd;clip-rule:evenodd;fill:#CFB6FA;" d="M0,1326.762c70.795,14.767,123.979,77.519,123.979,152.697
		S70.795,1617.39,0,1632.156V1326.762z"/>
	<path style="fill-rule:evenodd;clip-rule:evenodd;fill:#FFFFFF;" d="M0,1381.554c41.203,13.464,70.974,52.205,70.974,97.905
		S41.203,1563.899,0,1577.363V1381.554z"/>
	<path style="fill-rule:evenodd;clip-rule:evenodd;fill:#CFB6FA;" d="M87.121,1502.167c86.151,0,155.991,69.84,155.991,155.991
		c0,14.78-2.057,29.079-5.897,42.629H0v-172.042C24.878,1511.964,54.854,1502.167,87.121,1502.167z"/>
	<path style="fill-rule:evenodd;clip-rule:evenodd;fill:#FFFFFF;" d="M87.121,1555.173c56.877,0,102.986,46.108,102.986,102.985
		c0,15.205-3.298,29.639-9.213,42.629H0v-97.562C18.244,1574.352,50.44,1555.173,87.121,1555.173z"/>
	<path style="fill-rule:evenodd;clip-rule:evenodd;fill:#CFB6FA;" d="M41.245,1184.108c56.954,0,103.125,46.171,103.125,103.125
		s-46.171,103.125-103.125,103.125c-14.666,0-28.613-3.067-41.245-8.587v-189.076C12.632,1187.177,26.579,1184.108,41.245,1184.108z
		"/>
	<path style="fill-rule:evenodd;clip-rule:evenodd;fill:#FFFFFF;" d="M41.245,1237.53c27.45,0,49.703,22.253,49.703,49.703
		s-22.253,49.703-49.703,49.703c-17.176,0-32.317-8.713-41.245-21.96v-55.486C8.928,1246.243,24.069,1237.53,41.245,1237.53z"/>
</g>
<g>
	<path style="fill-rule:evenodd;clip-rule:evenodd;fill:#CFB6FA;" d="M25.079,935.216c56.955,0,103.125,46.171,103.125,103.125
		s-46.171,103.125-103.125,103.125c-8.65,0-17.05-1.071-25.079-3.077V938.293C8.029,936.287,16.429,935.216,25.079,935.216z"/>
	<path style="fill-rule:evenodd;clip-rule:evenodd;fill:#FFFFFF;" d="M25.079,988.638c27.45,0,49.704,22.253,49.704,49.703
		s-22.253,49.703-49.704,49.703c-9.148,0-17.717-2.475-25.079-6.786v-85.834C7.362,991.112,15.931,988.638,25.079,988.638z"/>
	<path style="fill-rule:evenodd;clip-rule:evenodd;fill:#CFB6FA;" d="M1025.085,1623.366c48.08,0,88.474,32.903,99.896,77.421
		H925.189C936.611,1656.27,977.006,1623.366,1025.085,1623.366z"/>
	<path style="fill-rule:evenodd;clip-rule:evenodd;fill:#FFFFFF;" d="M1025.085,1676.788c18.043,0,33.839,9.614,42.548,23.999
		h-85.096C991.246,1686.402,1007.043,1676.788,1025.085,1676.788z"/>
</g>
<g>
	<path style="fill-rule:evenodd;clip-rule:evenodd;fill:#061C29;" d="M607.575,1647.741c0.86-0.003,1.647-0.231,2.358-0.68
		c0.723-0.451,1.295-1.144,1.725-2.079c0.424-0.942,0.635-2.104,0.635-3.497c0-1.324-0.211-2.453-0.635-3.394
		c-0.431-0.95-1.011-1.681-1.74-2.171c-0.717-0.497-1.496-0.74-2.343-0.75v-3.559c0.801,0.113,1.513,0.325,2.137,0.633
		c0.978,0.487,1.929,1.244,2.856,2.253v-7.289c0-1.016,0.203-1.778,0.609-2.301c0.402-0.525,0.979-0.774,1.722-0.774
		c0.751,0,1.33,0.237,1.729,0.719c0.409,0.473,0.611,1.173,0.611,2.1v21.781c0,0.942-0.218,1.648-0.649,2.115
		c-0.438,0.472-1.001,0.704-1.691,0.704c-0.674,0-1.23-0.234-1.667-0.728c-0.442-0.483-0.663-1.188-0.663-2.092v-0.49
		c-0.664,0.767-1.317,1.376-1.961,1.854c-0.646,0.478-1.341,0.839-2.101,1.088c-0.299,0.099-0.609,0.177-0.931,0.235V1647.741z
		 M602.855,1641.485c0,1.334,0.207,2.473,0.624,3.414s0.988,1.646,1.707,2.121c0.722,0.483,1.512,0.721,2.371,0.721h0.017v3.68
		c-0.487,0.088-1,0.132-1.534,0.132c-1.183,0-2.279-0.247-3.283-0.745c-1.006-0.499-1.881-1.215-2.616-2.148
		c-0.737-0.919-1.295-2.018-1.674-3.273c-0.383-1.253-0.571-2.611-0.571-4.072c0-3.083,0.754-5.489,2.262-7.217
		c1.508-1.722,3.493-2.584,5.952-2.584c0.517,0,1.005,0.032,1.464,0.098v3.559l-0.053-0.001c-0.905,0-1.713,0.252-2.426,0.763
		c-0.707,0.513-1.259,1.256-1.65,2.215C603.049,1639.098,602.855,1640.218,602.855,1641.485z"/>
	<path style="fill-rule:evenodd;clip-rule:evenodd;fill:#061C29;" d="M630.796,1639.924h4.475c-0.119-1.687-0.573-2.951-1.369-3.786
		c-0.786-0.837-1.824-1.256-3.106-1.259v-3.436h0.153c1.931,0,3.585,0.4,4.96,1.224c1.389,0.81,2.42,1.859,3.111,3.15
		c0.687,1.287,1.025,2.607,1.025,3.945c0,1.235-0.357,2.051-1.067,2.417c-0.714,0.367-1.709,0.549-3.002,0.549h-5.179V1639.924
		L630.796,1639.924z M630.796,1651.545v-3.278c0.122,0.008,0.245,0.013,0.37,0.013c0.589,0,1.129-0.065,1.619-0.203
		c0.487-0.132,0.955-0.361,1.418-0.657c0.461-0.293,0.882-0.609,1.269-0.946c0.384-0.338,0.881-0.796,1.497-1.371
		c0.255-0.22,0.617-0.334,1.086-0.334c0.505,0,0.914,0.144,1.23,0.42c0.313,0.274,0.472,0.672,0.472,1.173
		c0,0.449-0.175,0.965-0.523,1.569c-0.353,0.596-0.878,1.171-1.588,1.72c-0.698,0.548-1.586,0.997-2.658,1.369
		c-1.066,0.354-2.292,0.534-3.682,0.534C631.134,1651.553,630.964,1651.55,630.796,1651.545z M626.32,1639.924h4.476v2.805h-4.476
		c0.01,1.124,0.235,2.106,0.674,2.963c0.441,0.862,1.025,1.505,1.76,1.933c0.624,0.381,1.304,0.591,2.042,0.643v3.278
		c-2.926-0.094-5.221-0.997-6.887-2.705c-1.761-1.807-2.641-4.26-2.641-7.354c0-1.464,0.217-2.819,0.651-4.069
		c0.437-1.244,1.07-2.32,1.9-3.213c0.833-0.885,1.856-1.568,3.077-2.05c1.174-0.459,2.475-0.694,3.899-0.71v3.436h-0.013
		c-1.227,0-2.241,0.419-3.025,1.267C626.966,1636.999,626.485,1638.258,626.32,1639.924z"/>
	<path style="fill-rule:evenodd;clip-rule:evenodd;fill:#061C29;" d="M660.108,1645.102c0,1.355-0.333,2.522-0.993,3.49
		c-0.667,0.979-1.646,1.717-2.941,2.216c-1.293,0.498-2.875,0.745-4.728,0.745c-1.774,0-3.294-0.267-4.562-0.81
		c-1.271-0.54-2.199-1.229-2.807-2.033c-0.599-0.815-0.903-1.634-0.903-2.455c0-0.543,0.192-1.007,0.58-1.391
		c0.388-0.388,0.873-0.584,1.468-0.584c0.515,0,0.914,0.132,1.194,0.388c0.276,0.243,0.543,0.604,0.797,1.059
		c0.504,0.884,1.109,1.54,1.813,1.968c0.709,0.44,1.671,0.655,2.891,0.655c0.985,0,1.795-0.221,2.432-0.655
		c0.632-0.443,0.949-0.941,0.949-1.508c0-0.871-0.333-1.507-0.985-1.906c-0.657-0.394-1.74-0.78-3.251-1.138
		c-1.697-0.423-3.082-0.858-4.147-1.329c-1.065-0.464-1.917-1.074-2.558-1.833c-0.64-0.767-0.96-1.693-0.96-2.805
		c0.001-0.985,0.292-1.925,0.886-2.813c0.589-0.874,1.462-1.569,2.611-2.098c1.156-0.528,2.546-0.786,4.168-0.786
		c1.281,0,2.428,0.129,3.446,0.393c1.021,0.268,1.87,0.623,2.554,1.074c0.681,0.442,1.197,0.935,1.552,1.481
		c0.357,0.542,0.536,1.07,0.536,1.59c0,0.566-0.19,1.032-0.57,1.391c-0.378,0.354-0.921,0.543-1.619,0.543
		c-0.507,0-0.939-0.144-1.295-0.429c-0.353-0.287-0.762-0.725-1.221-1.305c-0.372-0.482-0.812-0.875-1.317-1.162
		c-0.51-0.287-1.196-0.438-2.067-0.438c-0.892,0-1.631,0.203-2.222,0.584c-0.591,0.372-0.889,0.848-0.889,1.405
		c0,0.528,0.219,0.95,0.656,1.279c0.436,0.337,1.014,0.613,1.753,0.83c0.733,0.214,1.748,0.477,3.038,0.794
		c1.532,0.376,2.783,0.813,3.755,1.336c0.973,0.518,1.706,1.129,2.205,1.839C659.86,1643.389,660.108,1644.195,660.108,1645.102z"/>
	<path style="fill-rule:evenodd;clip-rule:evenodd;fill:#061C29;" d="M669.224,1634.274v14.28c0,0.989-0.235,1.733-0.705,2.241
		c-0.467,0.51-1.065,0.757-1.788,0.757c-0.726,0-1.315-0.253-1.765-0.774c-0.455-0.52-0.676-1.265-0.676-2.224v-14.128
		c0-0.975,0.221-1.72,0.676-2.203c0.45-0.499,1.04-0.745,1.765-0.745c0.723,0,1.32,0.246,1.788,0.745
		C668.989,1632.707,669.224,1633.397,669.224,1634.274L669.224,1634.274z M666.784,1629.182c-0.69,0-1.275-0.22-1.762-0.634
		c-0.492-0.422-0.733-1.021-0.733-1.793c0-0.698,0.249-1.278,0.751-1.728c0.498-0.458,1.076-0.68,1.744-0.68
		c0.635,0,1.204,0.201,1.699,0.609c0.494,0.42,0.741,1.015,0.741,1.798c0,0.76-0.241,1.353-0.721,1.787
		C668.02,1628.958,667.446,1629.182,666.784,1629.182z"/>
	<path style="fill-rule:evenodd;clip-rule:evenodd;fill:#061C29;" d="M682.93,1647.431c0.803-0.008,1.566-0.228,2.277-0.657
		c0.731-0.448,1.326-1.105,1.781-1.994c0.465-0.886,0.69-1.96,0.69-3.224c0-2.02-0.444-3.585-1.332-4.706
		c-0.868-1.104-2.01-1.659-3.417-1.68v-3.532c0.759,0.128,1.451,0.354,2.071,0.677c1.023,0.534,1.974,1.382,2.861,2.523v-0.668
		c0-0.851,0.207-1.517,0.633-1.983c0.419-0.475,0.962-0.707,1.62-0.707c0.957,0,1.587,0.317,1.902,0.933
		c0.313,0.613,0.469,1.506,0.469,2.685v14.345c0,1.634-0.17,3.051-0.524,4.232c-0.347,1.186-0.905,2.154-1.681,2.932
		c-0.77,0.766-1.78,1.35-3.028,1.719c-1.177,0.344-2.617,0.533-4.323,0.555v-3.439c1.081-0.035,1.938-0.209,2.567-0.528
		c0.708-0.352,1.197-0.851,1.486-1.49c0.285-0.645,0.44-1.329,0.491-2.05c0.046-0.73,0.09-1.904,0.117-3.521
		c-0.765,1.053-1.642,1.868-2.641,2.42c-0.603,0.337-1.276,0.572-2.021,0.705V1647.431z M678.18,1641.358
		c0,1.995,0.435,3.515,1.311,4.538c0.875,1.019,2.005,1.534,3.393,1.534h0.046v3.545c-0.481,0.085-0.99,0.128-1.53,0.128
		c-1.649,0-3.095-0.423-4.335-1.273c-1.236-0.836-2.184-2.021-2.845-3.544c-0.667-1.519-0.997-3.272-0.997-5.269
		c0-1.472,0.204-2.813,0.606-4.003c0.407-1.197,0.978-2.206,1.725-3.028c0.75-0.824,1.613-1.434,2.592-1.854
		c0.974-0.408,2.048-0.619,3.22-0.619c0.549,0,1.071,0.041,1.564,0.124v3.532l-0.082-0.001c-1.411,0-2.545,0.531-3.392,1.608
		C678.604,1637.85,678.18,1639.37,678.18,1641.358L678.18,1641.358z M682.93,1655.439v3.439l-0.335,0.002
		c-1.699,0-3.223-0.237-4.56-0.715c-1.338-0.476-2.369-1.094-3.094-1.843c-0.719-0.76-1.08-1.525-1.08-2.329
		c0-0.604,0.204-1.088,0.613-1.463c0.408-0.391,0.9-0.579,1.48-0.579c0.725,0,1.358,0.319,1.902,0.956
		c0.264,0.326,0.536,0.66,0.822,0.989c0.285,0.325,0.596,0.613,0.942,0.854c0.34,0.233,0.757,0.407,1.236,0.519
		c0.482,0.114,1.037,0.176,1.664,0.176C682.66,1655.445,682.797,1655.443,682.93,1655.439z"/>
	<path style="fill-rule:evenodd;clip-rule:evenodd;fill:#061C29;" d="M701.971,1634.203v0.605c0.866-1.153,1.816-1.996,2.85-2.524
		c1.025-0.536,2.212-0.807,3.552-0.807c1.301,0,2.467,0.281,3.492,0.842c1.019,0.569,1.788,1.376,2.296,2.411
		c0.323,0.605,0.534,1.259,0.63,1.951c0.098,0.704,0.147,1.593,0.147,2.675v9.197c0,0.989-0.226,1.733-0.676,2.241
		c-0.455,0.51-1.044,0.757-1.766,0.757c-0.737,0-1.331-0.253-1.791-0.774c-0.456-0.52-0.686-1.265-0.686-2.224v-8.232
		c0-1.622-0.225-2.875-0.678-3.74c-0.452-0.859-1.356-1.291-2.708-1.291c-0.879,0-1.682,0.268-2.405,0.787
		c-0.725,0.516-1.253,1.24-1.592,2.158c-0.238,0.745-0.362,2.121-0.362,4.127v6.191c0,0.995-0.233,1.754-0.696,2.253
		c-0.466,0.498-1.066,0.745-1.801,0.745c-0.709,0-1.295-0.253-1.754-0.774c-0.459-0.52-0.685-1.265-0.685-2.224v-14.28
		c0-0.939,0.204-1.64,0.615-2.104c0.41-0.461,0.968-0.692,1.679-0.692c0.432,0,0.828,0.097,1.175,0.303
		c0.347,0.208,0.631,0.513,0.84,0.926C701.864,1633.115,701.971,1633.614,701.971,1634.203z"/>
	<path style="fill-rule:evenodd;clip-rule:evenodd;fill:#061C29;" d="M728.461,1639.924h4.478c-0.124-1.687-0.58-2.951-1.369-3.786
		c-0.785-0.837-1.825-1.256-3.108-1.259v-3.436h0.154c1.928,0,3.583,0.4,4.963,1.224c1.379,0.81,2.416,1.859,3.105,3.15
		c0.686,1.287,1.029,2.607,1.029,3.945c0,1.235-0.357,2.051-1.067,2.417c-0.712,0.367-1.708,0.549-3.004,0.549h-5.18V1639.924
		L728.461,1639.924z M728.461,1651.545v-3.278c0.122,0.008,0.245,0.013,0.369,0.013c0.593,0,1.129-0.065,1.619-0.203
		c0.49-0.132,0.958-0.361,1.423-0.657c0.458-0.293,0.88-0.609,1.265-0.946c0.387-0.338,0.887-0.796,1.499-1.371
		c0.257-0.22,0.62-0.334,1.085-0.334c0.509,0,0.915,0.144,1.23,0.42c0.313,0.274,0.475,0.672,0.475,1.173
		c0,0.449-0.175,0.965-0.53,1.569c-0.347,0.596-0.877,1.171-1.583,1.72c-0.698,0.548-1.586,0.997-2.657,1.369
		c-1.064,0.354-2.297,0.534-3.681,0.534C728.802,1651.553,728.63,1651.55,728.461,1651.545z M723.984,1639.924h4.477v2.805h-4.477
		c0.01,1.124,0.233,2.106,0.675,2.963c0.441,0.862,1.028,1.505,1.752,1.933c0.629,0.381,1.313,0.591,2.05,0.643v3.278
		c-2.927-0.094-5.218-0.997-6.888-2.705c-1.756-1.807-2.639-4.26-2.639-7.354c0-1.464,0.223-2.819,0.652-4.069
		c0.433-1.244,1.068-2.32,1.902-3.213c0.832-0.885,1.851-1.568,3.071-2.05c1.179-0.459,2.472-0.693,3.901-0.71v3.436h-0.013
		c-1.227,0-2.241,0.419-3.03,1.267C724.633,1636.999,724.153,1638.258,723.984,1639.924z"/>
	<path style="fill-rule:evenodd;clip-rule:evenodd;fill:#061C29;" d="M750.414,1647.741c0.862-0.004,1.646-0.232,2.361-0.68
		c0.71-0.451,1.287-1.144,1.718-2.079c0.428-0.942,0.643-2.104,0.643-3.497c0-1.324-0.215-2.453-0.643-3.394
		c-0.431-0.95-1.007-1.681-1.739-2.171c-0.71-0.495-1.491-0.739-2.34-0.75v-3.559c0.802,0.113,1.513,0.325,2.129,0.633
		c0.978,0.487,1.929,1.244,2.86,2.253v-7.289c0-1.016,0.203-1.778,0.607-2.301c0.404-0.525,0.977-0.774,1.729-0.774
		c0.747,0,1.319,0.237,1.725,0.719c0.403,0.473,0.606,1.173,0.606,2.1v21.781c0,0.942-0.215,1.648-0.65,2.115
		c-0.434,0.472-0.999,0.704-1.681,0.704c-0.678,0-1.235-0.234-1.677-0.728c-0.44-0.483-0.66-1.188-0.66-2.092v-0.49
		c-0.665,0.767-1.315,1.376-1.965,1.854c-0.645,0.478-1.346,0.839-2.092,1.088c-0.3,0.099-0.611,0.176-0.932,0.234V1647.741z
		 M745.692,1641.485c0,1.334,0.209,2.473,0.625,3.414c0.417,0.941,0.986,1.646,1.707,2.121c0.726,0.483,1.514,0.721,2.367,0.721
		h0.022v3.679c-0.488,0.089-1,0.133-1.539,0.133c-1.181,0-2.279-0.247-3.286-0.745c-1.004-0.499-1.876-1.215-2.612-2.148
		c-0.738-0.919-1.294-2.018-1.674-3.273c-0.38-1.253-0.571-2.611-0.571-4.072c0-3.083,0.749-5.489,2.262-7.217
		c1.51-1.722,3.493-2.584,5.954-2.584c0.519,0,1.007,0.032,1.466,0.098v3.559l-0.061-0.001c-0.9,0-1.708,0.252-2.42,0.763
		c-0.714,0.513-1.263,1.256-1.657,2.215C745.885,1639.098,745.692,1640.218,745.692,1641.485z"/>
	<path style="fill-rule:evenodd;clip-rule:evenodd;fill:#061C29;" d="M783.805,1647.739l0.162,0.002
		c1.241,0,2.312-0.545,3.211-1.622c0.901-1.079,1.346-2.625,1.346-4.634c0-1.314-0.184-2.424-0.558-3.374
		c-0.374-0.936-0.906-1.667-1.594-2.18c-0.682-0.511-1.49-0.763-2.406-0.763c-0.054,0-0.108,0.001-0.162,0.003v-3.557
		c0.458-0.068,0.947-0.102,1.468-0.102c1.638,0,3.076,0.394,4.311,1.165c1.237,0.773,2.197,1.9,2.875,3.388
		c0.687,1.467,1.024,3.224,1.024,5.248c0,1.505-0.189,2.872-0.569,4.116c-0.379,1.247-0.933,2.335-1.656,3.247
		c-0.723,0.915-1.6,1.631-2.631,2.13c-1.029,0.498-2.166,0.745-3.408,0.745c-0.49,0-0.961-0.037-1.413-0.11V1647.739z
		 M779.085,1641.623c0,1.969,0.448,3.479,1.344,4.532c0.867,1.017,1.991,1.546,3.375,1.584v3.703
		c-0.25-0.041-0.494-0.093-0.732-0.156c-0.667-0.183-1.238-0.423-1.708-0.722c-0.469-0.29-0.871-0.593-1.21-0.91
		c-0.324-0.311-0.765-0.782-1.303-1.411v0.49c0,0.93-0.223,1.631-0.675,2.115c-0.442,0.472-1.01,0.704-1.699,0.704
		c-0.697,0-1.257-0.232-1.674-0.704c-0.415-0.484-0.625-1.186-0.625-2.115l0.001-21.57c0-0.988,0.204-1.748,0.606-2.262
		c0.409-0.52,0.967-0.769,1.692-0.769c0.761,0,1.345,0.241,1.757,0.736c0.408,0.49,0.617,1.182,0.617,2.083v7.545
		c0.926-0.968,1.873-1.704,2.836-2.212c0.616-0.33,1.32-0.552,2.117-0.67v3.557c-0.874,0.027-1.655,0.279-2.349,0.76
		c-0.734,0.513-1.32,1.256-1.741,2.23C779.292,1639.138,779.085,1640.285,779.085,1641.623z"/>
	<path style="fill-rule:evenodd;clip-rule:evenodd;fill:#061C29;" d="M801.516,1652.171l0.453-1.103l-6.081-15.304
		c-0.372-0.886-0.562-1.525-0.562-1.913c0-0.42,0.112-0.827,0.331-1.185c0.214-0.364,0.512-0.649,0.893-0.863
		c0.378-0.22,0.775-0.325,1.186-0.325c0.712,0,1.247,0.224,1.608,0.675c0.361,0.452,0.687,1.1,0.961,1.944l4.18,12.157l3.956-11.307
		c0.315-0.92,0.604-1.63,0.852-2.152c0.253-0.52,0.525-0.868,0.81-1.045c0.28-0.185,0.68-0.272,1.2-0.272
		c0.375,0,0.732,0.097,1.075,0.303c0.348,0.193,0.609,0.463,0.794,0.8c0.189,0.338,0.282,0.693,0.282,1.066
		c-0.043,0.22-0.127,0.551-0.231,0.971c-0.109,0.431-0.245,0.865-0.402,1.294l-6.438,16.853c-0.555,1.494-1.095,2.646-1.63,3.488
		c-0.526,0.852-1.227,1.497-2.105,1.948c-0.878,0.454-2.055,0.68-3.535,0.68c-1.447,0-2.533-0.16-3.257-0.469
		c-0.723-0.311-1.084-0.883-1.084-1.716c0-0.569,0.17-1.003,0.513-1.315c0.346-0.317,0.854-0.464,1.533-0.464
		c0.26,0,0.522,0.039,0.777,0.112c0.313,0.07,0.583,0.103,0.814,0.103c0.566,0,1.011-0.08,1.334-0.253
		c0.329-0.158,0.623-0.457,0.879-0.874C800.877,1653.592,801.18,1652.979,801.516,1652.171z"/>
	<path style="fill-rule:evenodd;clip-rule:evenodd;fill:#061C29;" d="M892.9,1631.909h1.18v-1.484c0-1.546,0.197-2.771,0.593-3.676
		c0.382-0.911,1.05-1.577,1.986-1.991c0.937-0.42,2.214-0.625,3.851-0.625c2.871,0,4.322,0.704,4.322,2.115
		c0,0.452-0.159,0.845-0.458,1.177c-0.302,0.325-0.653,0.492-1.07,0.492c-0.192,0-0.526-0.035-0.994-0.114
		c-0.469-0.07-0.862-0.105-1.193-0.105c-0.894,0-1.465,0.262-1.715,0.783c-0.256,0.528-0.385,1.279-0.385,2.247v1.182h1.214
		c1.884,0,2.826,0.572,2.826,1.701c0,0.805-0.252,1.321-0.751,1.535c-0.504,0.217-1.192,0.337-2.075,0.337h-1.214v13.072
		c0,0.974-0.236,1.72-0.693,2.238c-0.462,0.513-1.063,0.76-1.805,0.76c-0.695,0-1.279-0.247-1.742-0.76
		c-0.464-0.519-0.696-1.265-0.696-2.238v-13.072h-1.357c-0.736,0-1.297-0.173-1.701-0.514c-0.396-0.327-0.6-0.756-0.6-1.284
		C890.422,1632.5,891.255,1631.909,892.9,1631.909z"/>
	<path style="fill-rule:evenodd;clip-rule:evenodd;fill:#061C29;" d="M910.543,1644.424v4.131c0,0.995-0.232,1.754-0.703,2.253
		c-0.472,0.498-1.063,0.745-1.797,0.745c-0.699,0-1.29-0.247-1.748-0.757c-0.459-0.508-0.69-1.252-0.69-2.241v-13.746
		c0-2.228,0.799-3.33,2.4-3.33c0.823,0,1.415,0.258,1.778,0.774c0.367,0.513,0.561,1.285,0.598,2.297
		c0.592-1.012,1.199-1.784,1.817-2.297c0.622-0.517,1.45-0.774,2.49-0.774c1.034,0,2.043,0.258,3.018,0.774
		c0.983,0.513,1.463,1.205,1.463,2.056c0,0.613-0.201,1.104-0.621,1.5c-0.421,0.39-0.859,0.583-1.352,0.583
		c-0.177,0-0.613-0.107-1.307-0.325c-0.694-0.231-1.304-0.343-1.842-0.343c-0.719,0-1.313,0.196-1.767,0.581
		c-0.459,0.371-0.816,0.936-1.072,1.683c-0.249,0.749-0.424,1.641-0.523,2.673C910.589,1641.688,910.543,1642.945,910.543,1644.424z
		"/>
	<path style="fill-rule:evenodd;clip-rule:evenodd;fill:#061C29;" d="M929.548,1639.924h4.477c-0.128-1.687-0.576-2.951-1.363-3.786
		c-0.788-0.838-1.83-1.257-3.113-1.259v-3.436h0.157c1.926,0,3.574,0.4,4.954,1.224c1.385,0.81,2.421,1.859,3.108,3.15
		c0.685,1.287,1.033,2.607,1.033,3.945c0.001,1.235-0.354,2.051-1.069,2.417c-0.711,0.367-1.706,0.549-3.003,0.549h-5.181V1639.924
		L929.548,1639.924z M929.548,1651.545v-3.278c0.122,0.009,0.245,0.013,0.371,0.013c0.592,0,1.129-0.065,1.618-0.203
		c0.484-0.132,0.965-0.361,1.416-0.657c0.462-0.293,0.885-0.609,1.273-0.946c0.381-0.338,0.889-0.796,1.492-1.371
		c0.259-0.22,0.628-0.334,1.094-0.334c0.502,0,0.913,0.144,1.226,0.42c0.313,0.274,0.469,0.672,0.469,1.173
		c0,0.449-0.169,0.965-0.522,1.569c-0.354,0.596-0.877,1.171-1.574,1.72c-0.709,0.548-1.599,0.997-2.667,1.369
		c-1.07,0.354-2.292,0.534-3.681,0.534C929.889,1651.553,929.717,1651.55,929.548,1651.545z M925.07,1639.924h4.478v2.805h-4.478
		c0.018,1.124,0.237,2.106,0.676,2.963c0.441,0.862,1.018,1.505,1.763,1.933c0.622,0.381,1.302,0.59,2.039,0.643v3.278
		c-2.929-0.094-5.226-0.998-6.881-2.705c-1.764-1.807-2.647-4.26-2.647-7.354c0-1.464,0.217-2.819,0.655-4.069
		c0.433-1.244,1.066-2.32,1.896-3.213c0.829-0.885,1.859-1.568,3.081-2.05c1.168-0.459,2.467-0.693,3.896-0.71v3.436h-0.011
		c-1.228,0-2.241,0.419-3.037,1.267C925.717,1636.999,925.238,1638.258,925.07,1639.924z"/>
	<path style="fill-rule:evenodd;clip-rule:evenodd;fill:#061C29;" d="M951.56,1639.924h4.474c-0.126-1.687-0.576-2.951-1.357-3.786
		c-0.794-0.838-1.823-1.257-3.116-1.259v-3.436h0.148c1.938,0,3.593,0.4,4.972,1.224c1.376,0.81,2.418,1.859,3.105,3.15
		c0.688,1.287,1.027,2.607,1.027,3.945c0,1.235-0.359,2.051-1.069,2.417c-0.705,0.367-1.702,0.549-3,0.549h-5.184V1639.924
		L951.56,1639.924z M951.56,1651.545v-3.278c0.121,0.009,0.245,0.013,0.37,0.013c0.592,0,1.127-0.065,1.614-0.203
		c0.495-0.132,0.97-0.361,1.42-0.657c0.463-0.293,0.887-0.609,1.273-0.946c0.388-0.338,0.893-0.796,1.506-1.371
		c0.252-0.22,0.601-0.334,1.078-0.334c0.511,0,0.922,0.144,1.234,0.42c0.307,0.274,0.466,0.672,0.466,1.173
		c0,0.449-0.171,0.965-0.517,1.569c-0.354,0.596-0.886,1.171-1.593,1.72c-0.702,0.548-1.589,0.997-2.652,1.369
		c-1.075,0.354-2.298,0.534-3.685,0.534C951.901,1651.553,951.73,1651.55,951.56,1651.545z M947.086,1639.924h4.475v2.805h-4.475
		c0.012,1.124,0.24,2.106,0.676,2.963c0.441,0.862,1.027,1.505,1.755,1.933c0.631,0.381,1.309,0.59,2.044,0.643v3.278
		c-2.921-0.094-5.217-0.998-6.881-2.705c-1.763-1.807-2.641-4.26-2.641-7.354c0-1.464,0.223-2.819,0.641-4.069
		c0.444-1.244,1.075-2.32,1.907-3.213c0.826-0.885,1.854-1.568,3.079-2.05c1.178-0.46,2.478-0.694,3.894-0.71v3.436h-0.011
		c-1.231,0-2.238,0.419-3.028,1.267C947.734,1636.999,947.245,1638.258,947.086,1639.924z"/>
	<path style="fill-rule:evenodd;clip-rule:evenodd;fill:#061C29;" d="M978.715,1641.426c0-1.305-0.189-2.42-0.592-3.355
		c-0.399-0.936-0.943-1.66-1.652-2.15c-0.703-0.507-1.484-0.751-2.34-0.751l-0.136,0.002v-3.548
		c0.431-0.073,0.878-0.109,1.343-0.109c1.521,0,2.917,0.394,4.2,1.174c1.279,0.789,2.288,1.93,3.034,3.438
		c0.732,1.503,1.104,3.285,1.104,5.36c0,1.514-0.216,2.906-0.64,4.183c-0.43,1.267-1.012,2.344-1.763,3.2
		c-0.749,0.856-1.629,1.532-2.644,1.995c-1.021,0.463-2.123,0.689-3.292,0.689c-0.472,0-0.92-0.031-1.343-0.096v-3.718l0.136,0.002
		c0.822,0,1.579-0.237,2.276-0.721c0.7-0.476,1.262-1.18,1.68-2.139C978.504,1643.929,978.715,1642.775,978.715,1641.426z
		 M973.995,1635.171c-1.299,0.034-2.407,0.564-3.31,1.605c-0.937,1.073-1.408,2.652-1.408,4.743c0,1.96,0.466,3.485,1.399,4.579
		c0.893,1.063,2,1.606,3.319,1.641v3.718c-0.835-0.126-1.573-0.377-2.208-0.755c-0.964-0.563-1.874-1.388-2.745-2.494v7.416
		c0,2.174-0.793,3.256-2.361,3.256c-0.934,0-1.545-0.28-1.854-0.842c-0.301-0.557-0.444-1.381-0.444-2.452v-21.312
		c0-0.939,0.207-1.64,0.607-2.104c0.414-0.461,0.973-0.692,1.69-0.692c0.694,0,1.265,0.231,1.703,0.71
		c0.442,0.479,0.658,1.164,0.658,2.051v0.598c0.94-1.141,1.898-1.988,2.901-2.523c0.63-0.337,1.314-0.567,2.052-0.691V1635.171z"/>
	<path style="fill-rule:evenodd;clip-rule:evenodd;fill:#061C29;" d="M992.58,1634.274v14.28c0,0.989-0.24,1.733-0.708,2.241
		c-0.469,0.51-1.062,0.757-1.791,0.757c-0.724,0-1.304-0.253-1.764-0.774c-0.453-0.52-0.675-1.265-0.675-2.224v-14.128
		c0-0.975,0.222-1.72,0.675-2.203c0.46-0.499,1.04-0.745,1.764-0.745c0.729,0,1.322,0.246,1.791,0.745
		C992.34,1632.707,992.58,1633.397,992.58,1634.274L992.58,1634.274z M990.144,1629.182c-0.694,0-1.292-0.22-1.772-0.634
		c-0.48-0.422-0.729-1.021-0.729-1.793c0-0.698,0.252-1.278,0.75-1.728c0.496-0.458,1.082-0.68,1.752-0.68
		c0.631,0,1.201,0.201,1.697,0.609c0.492,0.42,0.738,1.015,0.738,1.798c0,0.76-0.243,1.353-0.724,1.787
		C991.377,1628.958,990.799,1629.182,990.144,1629.182z"/>
	<path style="fill-rule:evenodd;clip-rule:evenodd;fill:#061C29;" d="M1009.985,1649.291l-4.367-7.161l-2.68,2.538v3.924
		c0,0.952-0.24,1.683-0.736,2.201c-0.514,0.513-1.087,0.76-1.727,0.76c-0.766,0-1.363-0.247-1.796-0.757
		c-0.438-0.508-0.652-1.252-0.652-2.241v-21.057c0-1.1,0.201-1.936,0.625-2.506c0.433-0.575,1.033-0.859,1.823-0.859
		c0.757,0,1.354,0.249,1.806,0.774c0.441,0.522,0.658,1.285,0.658,2.301v11.977l5.561-5.832c0.69-0.718,1.21-1.214,1.564-1.481
		c0.37-0.264,0.811-0.393,1.325-0.393c0.621,0,1.126,0.188,1.546,0.587c0.4,0.393,0.613,0.88,0.613,1.473
		c0,0.722-0.67,1.692-2.013,2.898l-2.616,2.399l5.059,7.964c0.385,0.59,0.65,1.042,0.805,1.344c0.169,0.306,0.244,0.604,0.244,0.874
		c0,0.792-0.208,1.405-0.644,1.862c-0.426,0.446-0.997,0.673-1.685,0.673c-0.607,0-1.073-0.159-1.397-0.484
		C1010.979,1650.743,1010.538,1650.147,1009.985,1649.291z"/>
	<path style="fill-rule:evenodd;clip-rule:evenodd;fill:#061C29;" d="M1022.19,1651.553c-0.744,0-1.388-0.234-1.929-0.725
		c-0.544-0.479-0.825-1.152-0.825-2.03c0-0.727,0.267-1.363,0.78-1.894c0.525-0.528,1.168-0.79,1.923-0.79
		c0.76,0,1.402,0.262,1.943,0.781c0.534,0.524,0.805,1.158,0.805,1.903c0.001,0.865-0.271,1.544-0.805,2.027
		C1023.542,1651.318,1022.917,1651.553,1022.19,1651.553z"/>
	<path style="fill-rule:evenodd;clip-rule:evenodd;fill:#061C29;" d="M1048.229,1645.439c0,0.619-0.189,1.273-0.559,1.974
		c-0.366,0.704-0.925,1.364-1.674,2.004c-0.753,0.631-1.709,1.138-2.848,1.52c-1.149,0.39-2.445,0.581-3.878,0.581
		c-3.055,0-5.431-0.892-7.146-2.67c-1.709-1.771-2.572-4.159-2.572-7.146c0-2.039,0.397-3.826,1.181-5.384
		c0.778-1.551,1.92-2.754,3.406-3.599c1.479-0.854,3.251-1.276,5.312-1.276c1.277,0,2.445,0.182,3.518,0.555
		c1.072,0.378,1.97,0.851,2.715,1.454c0.739,0.584,1.308,1.216,1.703,1.884c0.391,0.675,0.584,1.297,0.584,1.874
		c0,0.597-0.221,1.098-0.665,1.506c-0.435,0.408-0.97,0.609-1.595,0.609c-0.414,0-0.76-0.105-1.027-0.313
		c-0.267-0.208-0.573-0.545-0.907-1.024c-0.606-0.912-1.234-1.604-1.892-2.062c-0.655-0.458-1.494-0.681-2.503-0.681
		c-1.459,0-2.635,0.563-3.527,1.707c-0.889,1.139-1.345,2.691-1.345,4.671c0,0.93,0.11,1.786,0.349,2.564
		c0.226,0.774,0.558,1.435,0.996,1.991c0.421,0.54,0.959,0.963,1.568,1.241c0.616,0.288,1.298,0.432,2.028,0.432
		c0.979,0,1.836-0.237,2.542-0.689c0.708-0.463,1.327-1.153,1.874-2.101c0.301-0.557,0.631-0.988,0.979-1.3
		c0.346-0.316,0.772-0.469,1.277-0.469c0.612,0,1.105,0.229,1.505,0.686C1048.021,1644.438,1048.229,1644.926,1048.229,1645.439z"/>
	<path style="fill-rule:evenodd;clip-rule:evenodd;fill:#061C29;" d="M1066.065,1641.52c0-2.018-0.452-3.585-1.337-4.705
		c-0.875-1.114-2.051-1.678-3.541-1.686v-3.649c1.493,0.004,2.833,0.25,4.044,0.716c1.213,0.484,2.258,1.167,3.126,2.065
		c0.875,0.897,1.529,1.957,1.977,3.188c0.46,1.232,0.683,2.585,0.683,4.071c0,1.464-0.223,2.823-0.685,4.06
		c-0.463,1.251-1.131,2.315-1.995,3.204c-0.868,0.893-1.898,1.581-3.105,2.065c-1.201,0.469-2.55,0.7-4.044,0.704v-3.676
		c1.49-0.009,2.666-0.566,3.541-1.69C1065.613,1645.06,1066.065,1643.5,1066.065,1641.52z M1061.188,1635.128l-0.036-0.001
		c-0.958,0-1.809,0.25-2.548,0.749c-0.726,0.508-1.298,1.244-1.703,2.215c-0.39,0.982-0.591,2.127-0.591,3.429
		c0,1.291,0.194,2.414,0.591,3.38c0.392,0.965,0.95,1.698,1.676,2.215c0.733,0.51,1.593,0.763,2.575,0.763h0.036v3.676h-0.036
		c-1.484,0-2.833-0.234-4.032-0.725c-1.186-0.479-2.22-1.165-3.103-2.065c-0.867-0.901-1.534-1.963-1.976-3.184
		c-0.46-1.226-0.688-2.58-0.688-4.06c0-1.498,0.229-2.866,0.7-4.112c0.447-1.238,1.108-2.303,1.955-3.184
		c0.859-0.877,1.898-1.557,3.111-2.035c1.227-0.479,2.566-0.71,4.032-0.71h0.036V1635.128z"/>
	<path style="fill-rule:evenodd;clip-rule:evenodd;fill:#061C29;" d="M1091.335,1641.878v6.563c0,1.038-0.237,1.818-0.709,2.338
		c-0.465,0.521-1.091,0.774-1.865,0.774c-0.745,0-1.353-0.253-1.814-0.774c-0.466-0.52-0.7-1.3-0.7-2.338v-7.868
		c0-1.247-0.045-2.194-0.125-2.89c-0.085-0.692-0.313-1.255-0.688-1.692c-0.37-0.443-0.965-0.654-1.773-0.654
		c-1.612,0-2.676,0.549-3.184,1.654c-0.514,1.112-0.769,2.702-0.769,4.779v6.671c0,1.028-0.24,1.798-0.709,2.325
		c-0.453,0.526-1.07,0.787-1.83,0.787c-0.744,0-1.354-0.261-1.838-0.787c-0.478-0.527-0.716-1.297-0.716-2.325l0.001-14.132
		c0-0.921,0.216-1.63,0.643-2.114c0.433-0.47,0.997-0.716,1.691-0.716c0.676,0,1.244,0.224,1.69,0.675
		c0.458,0.452,0.68,1.082,0.68,1.875v0.469c0.861-1.021,1.775-1.777,2.751-2.265c0.98-0.473,2.064-0.719,3.254-0.719
		c1.247,0,2.313,0.246,3.199,0.739c0.895,0.495,1.638,1.244,2.211,2.244c0.832-1.009,1.728-1.766,2.679-2.253
		c0.95-0.484,2.008-0.73,3.17-0.73c1.346,0,2.511,0.267,3.484,0.789c0.979,0.546,1.703,1.297,2.184,2.279
		c0.433,0.9,0.64,2.306,0.64,4.222v9.637c0,1.038-0.243,1.818-0.712,2.338c-0.458,0.521-1.077,0.774-1.858,0.774
		c-0.739,0-1.358-0.261-1.83-0.787c-0.483-0.527-0.718-1.297-0.718-2.325v-8.302c0-1.054-0.042-1.907-0.132-2.556
		c-0.099-0.631-0.337-1.173-0.736-1.602c-0.396-0.434-1.004-0.645-1.812-0.645c-0.651,0-1.262,0.19-1.851,0.575
		c-0.58,0.381-1.039,0.903-1.37,1.555C1091.512,1638.296,1091.335,1639.763,1091.335,1641.878z"/>
	<path style="fill-rule:evenodd;clip-rule:evenodd;fill:#061C29;" d="M853.99,1618.747c-0.1-0.323-0.205-0.634-0.308-0.95
		c1.655-0.152,2.773-2.142,1.96-3.615c-0.395-0.881-1.301-1.352-2.211-1.372h-0.107c-0.768,0.014-1.524,0.349-1.968,1.033
		c-1.056,1.34-0.235,3.47,1.388,3.907c0.097,0.331,0.193,0.674,0.296,1.023c-2.487,0.161-5.024,0.719-7.111,2.138
		c0.214,0.591,0.432,1.201,0.643,1.814c4.21-1.849,8.93-1.449,13.368-1.007c0.147-0.584,0.295-1.174,0.446-1.758
		C858.377,1619.058,856.174,1618.727,853.99,1618.747z"/>
	<path style="fill-rule:evenodd;clip-rule:evenodd;fill:#061C29;" d="M879.019,1625.535c-0.662,0.343-0.792,1.145-0.748,1.813
		c-0.745,0.723-0.393,1.808-0.472,2.711c-0.168,0.505-0.775,0.563-1.197,0.751c-0.581-0.88-1.197-1.733-1.979-2.458l0.008-0.041
		c-0.851-0.796-1.766-1.52-2.736-2.15c-0.775,0.836-1.594,1.654-2.338,2.524c1.479,1.63,2.848,3.379,4.06,5.218
		c0.836,1.405,1.505,2.896,2.083,4.421c1.252-0.64,2.486-1.308,3.743-1.974c-0.663-1.521-1.414-3.014-2.221-4.478
		c0.558-0.296,1.299-0.583,1.384-1.308c0.065-0.802-0.113-1.667,0.365-2.367c0.967,0.634,2.436-0.077,2.452-1.256
		C881.551,1625.723,880.021,1624.852,879.019,1625.535z"/>
	<path style="fill-rule:evenodd;clip-rule:evenodd;fill:#061C29;" d="M869.207,1635.661c-0.296,2.034-2.231,3.756-4.309,3.63v8.155
		c3.813-1.026,7.499-2.53,10.906-4.53c0,0-0.719-3.969-3.547-8.299c-1.631-2.704-3.396-5.395-5.796-7.48
		c-0.496-0.437-1.018-0.848-1.563-1.229v4.714c0.523,0.012,1.047,0.11,1.551,0.231
		C868.353,1631.528,869.601,1633.679,869.207,1635.661z M864.898,1639.291l-0.016-0.001c-1.202,0.099-2.361-0.469-3.18-1.319
		c-0.586-0.729-1.071-1.566-1.15-2.523c-0.284-2.064,1.174-4.2,3.195-4.685c0.378-0.111,0.764-0.149,1.15-0.141v-4.714
		c-2.499-1.745-5.48-2.847-8.543-2.834c-3.776-0.045-7.591,0.433-11.189,1.596v4.48c0.665,0.002,1.331,0.095,1.972,0.274
		c0.727,0.185,1.396,0.522,2.018,0.941c1.285,0.907,2.25,2.25,2.679,3.771c0.598,1.95,0.217,4.137-0.919,5.822
		c-0.82,1.188-1.991,2.106-3.337,2.629c-0.77,0.286-1.592,0.426-2.413,0.426v6.048l0.191,0.01c4.415,0.134,8.866,0.246,13.252-0.376
		c2.118-0.277,4.224-0.693,6.29-1.249V1639.291z M845.166,1624.67v4.48c-1.138-0.004-2.272,0.258-3.276,0.803
		c-2.089,1.111-3.56,3.329-3.658,5.708c-0.138,1.907,0.619,3.8,1.893,5.205c1.273,1.405,3.158,2.146,5.042,2.147v6.048
		c-4.414-0.226-8.763-1.183-13.043-2.252c-0.784-3.964-0.805-8.256,0.934-11.981c1.802-4.145,5.361-7.354,9.461-9.158
		C843.385,1625.292,844.269,1624.96,845.166,1624.67z"/>
	<path style="fill-rule:evenodd;clip-rule:evenodd;fill:#061C29;" d="M833.11,1628.577c-1.765,1.065-3.214,2.565-4.422,4.219
		c-0.354-0.657-0.462-1.438-0.923-2.024c-0.262-0.353-0.733-0.208-1.101-0.214c-0.468,0.049-0.921-0.077-1.363-0.211
		c0.513-0.728,0.379-1.84-0.413-2.313c-0.843-0.609-2.15-0.082-2.373,0.924c-0.355,1.101,0.818,2.204,1.898,1.916
		c0.572,0.851,1.606,0.71,2.49,0.742c0.396,0.687,0.701,1.443,1.207,2.068c-0.946,1.862-1.48,3.949-1.521,6.043
		c1.214,0.505,2.424,1.026,3.646,1.532c0.059-1.327,0.211-2.635,0.412-3.926c0.408-2.837,2.047-5.301,3.991-7.331
		C834.153,1629.495,833.615,1629.056,833.11,1628.577z"/>
	<path style="fill-rule:evenodd;clip-rule:evenodd;fill:#061C29;" d="M861.491,1649.937c-4.476,0.977-9.091,1.264-13.664,1.064
		c-3.092-0.158-6.184-0.446-9.209-1.114c-2.139-0.435-4.236-1.054-6.345-1.658c0.338,2.69,1.426,5.266,2.979,7.484
		c1.833,2.578,4.283,4.945,7.335,5.899c2.233,0.599,4.872,1.357,9.22,1.378h0.44l0.451-0.006c4.046-0.07,8.022-0.583,11.57-2.095
		c2.288-0.982,4.436-2.326,6.281-4.004c1.59-1.502,2.84-3.373,3.701-5.383c0.834-1.898,1.582-5.316,1.502-7.061
		C871.375,1646.933,866.478,1649.101,861.491,1649.937z"/>
</g>
</svg>
