<svg xmlns="http://www.w3.org/2000/svg" width="865.76" height="682.89" viewBox="0 0 865.76 682.89"><path d="M821.72,310.43c-5.35-18.08-19.17-34.09-36.65-47.88a94.92,94.92,0,0,1-79.58,43.18c-52.5,0-95.06-42.7-95.06-95.38a96,96,0,0,1,2.68-22.57c-53.62-22.31-83.3-52-83.3-52a350.75,350.75,0,0,0-42.68-38.25,54.76,54.76,0,0,1-47.91,28.36c-30.29,0-54.85-24.75-54.85-55.28a55.41,55.41,0,0,1,3.43-19.27c-40.68-8.26-77.44-3.63-106.69,4.72a78.18,78.18,0,1,1-128.35,88.11C135.49,167.79,123,194.07,114,221.13A66.87,66.87,0,0,1,93.35,349.92c-.31,12.83-.17,25.05.25,36.36a228.75,228.75,0,0,0,72.77,159.29c93.09,86.39,209,91.87,230.83,92.11,2.76,0,5.51.17,8.26.4,175.49,14.66,291-43.83,345-80.72A201.21,201.21,0,0,0,833,437.87C850,366.21,821.72,310.43,821.72,310.43Z" fill="#cfb6fa"/><path d="M821.72,310.43c-5.35-18.08-19.17-34.09-36.65-47.88a94.92,94.92,0,0,1-79.58,43.18c-52.5,0-95.06-42.7-95.06-95.38a96,96,0,0,1,2.68-22.57c-53.62-22.31-83.3-52-83.3-52a350.75,350.75,0,0,0-42.68-38.25,54.76,54.76,0,0,1-47.91,28.36c-30.29,0-54.85-24.75-54.85-55.28a55.41,55.41,0,0,1,3.43-19.27c-40.68-8.26-77.44-3.63-106.69,4.72a78.18,78.18,0,1,1-128.35,88.11C135.49,167.79,123,194.07,114,221.13A66.87,66.87,0,0,1,93.35,349.92c-.31,12.83-.17,25.05.25,36.36a228.75,228.75,0,0,0,72.77,159.29c93.09,86.39,209,91.87,230.83,92.11,2.76,0,5.51.17,8.26.4,175.49,14.66,291-43.83,345-80.72A201.21,201.21,0,0,0,833,437.87C850,366.21,821.72,310.43,821.72,310.43Z" fill="#fff" opacity="0.7"/><circle cx="221.08" cy="106.15" r="73.24" fill="#cfb6fa"/><circle cx="221.08" cy="106.15" r="73.24" fill="#fff" opacity="0.7"/><rect x="224.03" y="500.14" width="7.94" height="146.49" fill="#68c39f"/><rect x="377.27" y="500.14" width="7.94" height="146.49" fill="#68c39f"/><g opacity="0.4"><rect x="224.03" y="500.14" width="7.94" height="146.49" fill="#fff"/><rect x="377.27" y="500.14" width="7.94" height="146.49" fill="#fff"/></g><path d="M214.58,422.61s-9.8,32.14.24,44.49L353.41,431l6.11,2.54-2.88-12Z" fill="#625958"/><rect x="160.52" y="418.37" width="13.5" height="225.68" fill="#68c39f"/><rect x="660.71" y="418.37" width="13.5" height="225.68" fill="#68c39f"/><g opacity="0.4"><rect x="160.52" y="418.37" width="13.5" height="225.68" fill="#fff"/><rect x="660.71" y="418.37" width="13.5" height="225.68" fill="#fff"/></g><rect x="204.18" y="488.23" width="201.87" height="14.09" fill="#68c39f"/><rect x="204.18" y="488.23" width="201.87" height="14.09" fill="#fff" opacity="0.6"/><path d="M214.29,461.11c.33,8.23,3.15,20,15.3,26.73,0,0,2.58,41.88,8.93,73.24,0,0,2.38,14.29,1.79,23.62,0,0,12.31,4.76,29.18-1.19,0,0,7.17-63.39,9.74-80.72l2.56-15h62.45s-7.27,17.86-18.58,53L315.54,573s5.95,15.09,27.19,11.71l60.54-105s12.9-25.8-17.86-35.53l-30-12.31s-5-10.12-29.57,3c0,0-28.87,15.27-41.33,5.4a24.14,24.14,0,0,0-4.61-2.93c-6.32-3-20.86-7.92-39.61-1.48,0,0-9.71.92-19.1,9.16A20.35,20.35,0,0,0,214.29,461.11Z" fill="#cfb6fa"/><path d="M223.56,443.08s-13,14-4.09,21.14c0,0,5.75,4.17,13.1-8.94,0,0-5.36,20.25-3,32.56,0,0-12.74-5.84-15-23.17C214.59,464.67,211.35,450.63,223.56,443.08Z" opacity="0.2"/><path d="M275.64,435.63s18.06,11.91,6.15,52.21h62.45s10.6-23.23,26.08-31.76c0,0-4.37-5-29.38,20.64,0,0-23.62,14.89-35.92-1.59,0,0-9.53-16.67,11.11-30.17,0,0,27-20.44,39.3-13.1,0,0-4.64-9.62-27.66,1.89,0,0-29.18,16.48-43.21,6.58a40.91,40.91,0,0,0-4.28-2.92A15.07,15.07,0,0,0,275.64,435.63Z" opacity="0.2"/><rect x="243.48" y="594.23" width="21.44" height="21.24" fill="#e4b390"/><path d="M230.38,639.09s28.39-6.16,36.53,8.93a140.24,140.24,0,0,0,.79-30.77s.64-9.57-4.67-7a16.52,16.52,0,0,1-6.5,1.72c-4.46.22-11,.27-13.27-1.11,0,0-2-2-1.76,3.39A38.58,38.58,0,0,1,230.38,639.09Z" fill="#625958"/><path d="M237.45,638.07s7.67-9.07,8.71-26.49a5.27,5.27,0,0,1,5.57-4.93l3.54.2a5.28,5.28,0,0,1,5,5.29c0,6.81-.59,19.11-3.95,27.66C256.3,639.8,250.67,636.65,237.45,638.07Z" fill="#cfb6fa"/><polygon points="312.56 589.27 303.83 610.11 318.12 621.02 332.81 596.61 312.56 589.27" fill="#e4b390"/><path d="M342.93,634.72a19.26,19.26,0,0,0-6.3,1.41,16.39,16.39,0,0,0-2.35,1.15c-3.6,2.12-7.08,6-7.63,13.12,0,0-20.84-10.32-33.94-26,0,0,4.45-5.31,8.1-16.55a2.15,2.15,0,0,1,3.23-1.12l9.91,6.55-.29-7a2.47,2.47,0,0,1,2.63-2.57l7.64.47a2.47,2.47,0,0,1,2.32,2.58c-.18,3.94.11,11.84,4.57,17Z" fill="#625958"/><path d="M292.71,624.4l-.52,8.15a2.57,2.57,0,0,0,.78,2c5.47,5.3,36,33.38,60.87,24.7a5,5,0,0,0,2.43-1.84c2.71-3.83,8.34-15.21-13.34-22.71,0,0-14.89-.4-16.28,15.68C326.65,650.4,307.6,641.47,292.71,624.4Z" fill="#b0f4f0"/><path d="M342.93,634.72a15.4,15.4,0,0,0-6.3,1.41,14.31,14.31,0,0,0-2.14,1.19l-.21,0c-1.61-.35-11.93-3.37-20.33-24l-.29-7a2.47,2.47,0,0,1,2.63-2.57l7.64.47a2.47,2.47,0,0,1,2.32,2.58c-.18,3.94.11,11.84,4.57,17Z" fill="#cfb6fa"/><path d="M315.54,573l2-6.18s9.55,9.85,33.22,4.44l-8.08,13.45S323.68,589.27,315.54,573Z" opacity="0.2"/><path d="M240.31,584.7l.17-6.3s9.07,6.76,30.15-3.4l-1.14,8.51S255.39,589.46,240.31,584.7Z" opacity="0.2"/><ellipse cx="439.22" cy="70.62" rx="50.42" ry="50.81" fill="#cfb6fa"/><ellipse cx="439.22" cy="70.62" rx="50.42" ry="50.81" fill="#fff" opacity="0.7"/><rect x="416.19" y="41.64" width="52.6" height="52.6" fill="#cfb6fa"/><rect x="418.58" y="56.13" width="46.84" height="35.93" fill="#fff" opacity="0.5"/><rect x="416" y="41.24" width="52.8" height="13.1" fill="#4a4745"/><path d="M421.16,45.31h-.08a3.63,3.63,0,0,1-2.6-4.44,3.38,3.38,0,0,1,3.59-2.61c1.11.12,2.48.83,2.71,3.58a.3.3,0,0,1-.59.05c-.16-1.88-.9-2.9-2.18-3A2.79,2.79,0,0,0,419.06,41a3,3,0,0,0,2.17,3.71.3.3,0,0,1,.21.37A.29.29,0,0,1,421.16,45.31Z" fill="#fff"/><path d="M429.1,44.51H429a3.63,3.63,0,0,1-2.6-4.43A3.39,3.39,0,0,1,430,37.45c1.11.12,2.48.84,2.71,3.59a.29.29,0,0,1-.27.32.29.29,0,0,1-.32-.27c-.16-1.88-.9-2.91-2.18-3A2.78,2.78,0,0,0,427,40.21a3,3,0,0,0,2.17,3.72.29.29,0,0,1,.21.36A.28.28,0,0,1,429.1,44.51Z" fill="#fff"/><path d="M436.84,44.51h-.08a3.63,3.63,0,0,1-2.6-4.43,3.39,3.39,0,0,1,3.59-2.62c1.11.12,2.48.84,2.71,3.59a.29.29,0,0,1-.27.32.29.29,0,0,1-.32-.27c-.16-1.88-.9-2.91-2.18-3a2.78,2.78,0,0,0-2.95,2.16,3,3,0,0,0,2.18,3.72.29.29,0,0,1,.2.36A.28.28,0,0,1,436.84,44.51Z" fill="#fff"/><path d="M445.17,44.51h-.07a3.63,3.63,0,0,1-2.6-4.43,3.39,3.39,0,0,1,3.59-2.62c1.11.12,2.47.84,2.71,3.59a.3.3,0,0,1-.27.32.29.29,0,0,1-.32-.27c-.16-1.88-.9-2.91-2.19-3a2.77,2.77,0,0,0-2.94,2.16,3,3,0,0,0,2.17,3.72.29.29,0,0,1-.08.58Z" fill="#fff"/><path d="M453.51,44.51h-.08a3.64,3.64,0,0,1-2.6-4.43,3.4,3.4,0,0,1,3.59-2.62c1.11.12,2.48.84,2.72,3.59a.3.3,0,0,1-.27.32.31.31,0,0,1-.33-.27c-.16-1.88-.89-2.91-2.18-3a2.78,2.78,0,0,0-2.95,2.16,3,3,0,0,0,2.18,3.72.29.29,0,0,1-.08.58Z" fill="#fff"/><path d="M461.85,44.32h-.08a3.64,3.64,0,0,1-2.6-4.44,3.4,3.4,0,0,1,3.59-2.62c1.11.12,2.48.84,2.71,3.59a.29.29,0,0,1-.27.32.29.29,0,0,1-.32-.27c-.16-1.88-.9-2.91-2.18-3A2.79,2.79,0,0,0,459.75,40a3,3,0,0,0,2.18,3.72.3.3,0,0,1,.2.37A.29.29,0,0,1,461.85,44.32Z" fill="#fff"/><path d="M241.34,105.75a20,20,0,0,0-3.06-4.34c1.26-3.82,5.23-8.56,5.23-8.56a13.06,13.06,0,0,0-14.38,2.25,32.57,32.57,0,0,0-12.52-2.45c-14.74,0-26.7,9.42-26.7,21a18.28,18.28,0,0,0,5.38,12.66l-.12,12.31,5.29,2.09,4.78-8a33.35,33.35,0,0,0,21.55.41l6,7.54,5-2.78-1.45-10a21.69,21.69,0,0,0,4.49-5.27h7.28V105.75Zm-15.21-5.3a.41.41,0,0,1-.56.1A15.39,15.39,0,0,0,213.21,98a18.81,18.81,0,0,0-5.77,2.17.4.4,0,1,1-.44-.68,19.42,19.42,0,0,1,6-2.28,16.39,16.39,0,0,1,13,2.7A.4.4,0,0,1,226.13,100.45Z" fill="#4a4745"/><path d="M189.26,114.22a6.22,6.22,0,0,1-3.82-1.26,6.34,6.34,0,0,1-2-2.79,5.44,5.44,0,0,1-4.29-1.15,5.81,5.81,0,0,1-2.07-4.73,5.35,5.35,0,0,1,4.16-5.37.49.49,0,0,1,.61.35.51.51,0,0,1-.35.61,4.33,4.33,0,0,0-3.43,4.45,4.82,4.82,0,0,0,1.71,3.92,4.38,4.38,0,0,0,3.36,1,12.37,12.37,0,0,1-.33-2,3.38,3.38,0,0,1,1.86-3.27c1.55-.76,2.81-.47,3.44.8a3.33,3.33,0,0,1-1.47,4.39,10.33,10.33,0,0,1-2.21.89,5.34,5.34,0,0,0,1.61,2.21,5.41,5.41,0,0,0,3.79,1,.48.48,0,0,1,.56.41.5.5,0,0,1-.41.57A6.78,6.78,0,0,1,189.26,114.22Zm-3-9.76a2.64,2.64,0,0,0-1.12.32,2.37,2.37,0,0,0-1.32,2.3,11,11,0,0,0,.33,2,9.64,9.64,0,0,0,2.05-.82,2.36,2.36,0,0,0,1.06-3.08A1.06,1.06,0,0,0,186.24,104.46Z" fill="#4a4745"/><circle cx="219.39" cy="72.3" r="13.89" fill="#cfb6fa"/><circle cx="219.39" cy="72.3" r="11.41" fill="#fff" opacity="0.5"/><path d="M217.15,80.32l.36-1.56a6,6,0,0,1-1.78-1,3.47,3.47,0,0,1-1-1.52,4.59,4.59,0,0,1-.14-2.21l1.65.08a4,4,0,0,0,.21,2,2.34,2.34,0,0,0,1.36,1.3l1.17-5a6.62,6.62,0,0,1-1.8-1.21,2.9,2.9,0,0,1-.88-1.43,3.75,3.75,0,0,1,1.8-4.2,4.19,4.19,0,0,1,2.54-.3l.18-.75.92.22-.17.75a4,4,0,0,1,2,1.3,3.68,3.68,0,0,1,.69,2.63l-1.67-.14a2.7,2.7,0,0,0-.25-1.54,2.19,2.19,0,0,0-1-.93l-1.06,4.51a12.74,12.74,0,0,1,1.46.83,3.86,3.86,0,0,1,1,1.06,3.39,3.39,0,0,1,.45,1.26,3.86,3.86,0,0,1-.07,1.43,3.86,3.86,0,0,1-4.62,3l-.37,1.58Zm3.2-13.7a2.45,2.45,0,0,0-1.61.4,2.25,2.25,0,0,0-.72,2.72A3.22,3.22,0,0,0,219.34,71Zm-1.61,11a2.43,2.43,0,0,0,1.7-.43,2.52,2.52,0,0,0,1-1.54,2.12,2.12,0,0,0-.1-1.47,3.77,3.77,0,0,0-1.46-1.32Z" fill="#4a4745"/><circle cx="89.08" cy="283.2" r="61.73" fill="#cfb6fa"/><circle cx="89.08" cy="283.2" r="61.73" fill="#fff" opacity="0.7"/><rect x="56.93" y="288.56" width="8.73" height="23.82" fill="#cfb6fa"/><rect x="73.8" y="277.84" width="8.73" height="34.54" fill="#cfb6fa"/><rect x="90.87" y="281.81" width="8.73" height="30.57" fill="#cfb6fa"/><rect x="108.33" y="262.36" width="8.73" height="50.02" fill="#cfb6fa"/><polyline points="60.9 279.03 72.01 268.31 85.91 266.13 99.8 252.43 107.54 248.26" fill="none" stroke="#fff" stroke-miterlimit="10" stroke-width="3"/><circle cx="60.1" cy="279.63" r="2.18" fill="#625958"/><circle cx="72.21" cy="268.51" r="2.18" fill="#625958"/><circle cx="85.9" cy="265.53" r="2.18" fill="#625958"/><circle cx="99.8" cy="252.43" r="2.18" fill="#625958"/><polygon points="105.75 245.69 113.89 244.49 108.93 251.64 105.75 245.69" fill="#625958"/><path d="M316.53,570.81s-3.77-2.39-7.54,5.55c0,0-4.17,9.93-.4,12.31,0,0,17.08,10.78,28.35,10.81a5.54,5.54,0,0,0,4.64-2.51c2.23-3.34,5.58-9.75,2.26-14.26l-1.11,2s-19.45,4.17-27.19-11.71Z" fill="#625958"/><path d="M240.31,584.7s-3-3.18-2.58,3c0,0-1.39,11.91,6.15,10.92h22.63s5.16.19,5-6.75c0,0,1.59-12.91-2-8.34A48.2,48.2,0,0,1,240.31,584.7Z" fill="#625958"/><path d="M266.91,648a15.06,15.06,0,0,1-2.56,6.56,17.49,17.49,0,0,1-8.63,6.66c-10.55,3.82-20.58.8-24.72-.83a10.13,10.13,0,0,1-4.79-3.82,9.38,9.38,0,0,1-1.51-4.23c-.67-6.71,5.68-13.27,5.68-13.27l11-1.34c12.49-.82,19.31,3.33,22.69,6.61A14,14,0,0,1,266.91,648Z" fill="#b0f4f0"/><rect x="137.99" y="397.33" width="571.46" height="25.8" fill="#68c39f"/><rect x="137.99" y="397.33" width="571.46" height="25.8" fill="#fff" opacity="0.6"/><path d="M234.66,284.81a11.11,11.11,0,0,0-8.93,1.49,58.41,58.41,0,0,1-5.41,3.4l-9.6,5.24a31.53,31.53,0,0,0-14.08,15.67,54.38,54.38,0,0,0-2.58,8.11s-24.81,83.77,3.18,86.15c0,0,14.49,1.39,34.53-7.74l126,.67-9.12-41.56-23.5-46.83a58.52,58.52,0,0,0-13.83-17.94c-5.36-4.66-12.29-9-20-9.47l-15.73,1.06Z" fill="#625958"/><ellipse cx="250.88" cy="244.98" rx="23.26" ry="34.59" transform="translate(-72.37 109.09) rotate(-21.52)" fill="#e4b390"/><path d="M257.29,216.14s6.64,28.35-21.15,31.72c0,0-3.37,1.39-5.16,10.92l-3.1,9.54,8.86,9.51s-3.78,7.94-15.09-4.76c0,0-24.81-2-20.64-30.57,0,0-13.7,3.77,1.59,22,0,0-24.89-15.28,1.47-27.55a2.17,2.17,0,0,0,1.05-1.06c.42-1,.61-2.86-1.77-5.43a8,8,0,0,1-1.95-7.57c1-3.77,4.75-8.79,15.49-13.76,0,0,20.64-12.51,44.66-6.75,0,0,15.68,2.38,11.31,21,0,0,1.59-14.1-8.93-18.46,0,0,8.27,6.7,3.69,21.94A70,70,0,0,0,257.29,216.14Z" fill="#4a4745"/><path d="M264.33,294.11l1.95,10.27a2.28,2.28,0,0,1,.05.44,2.36,2.36,0,0,1-4.62.67l-3.14-10.59a27.74,27.74,0,0,1-25-8.13l3.18-8.94-8.86-9.51c5.62.81,6.6-4.87,6.6-4.87,20.79,25.05,34.23,10.23,34.23,10.23l4.85,7.14h0l2.28,3.37A29.91,29.91,0,0,1,264.33,294.11Z" fill="#e4b390"/><path d="M264.33,294.11l1.95,10.27a2.28,2.28,0,0,1,.05.44,2.36,2.36,0,0,1-4.62.67l-3.14-10.59a27.74,27.74,0,0,1-25-8.13l3.18-8.94-8.86-9.51,10.64,8.12L237.33,287s21.84,15.12,36.23-6.14h0l2.28,3.37A29.91,29.91,0,0,1,264.33,294.11Z" fill="#e0a780"/><path d="M234.28,259.28s-.57-8.35,3.38-8.34a7.53,7.53,0,0,0,2.61-.47c6.1-2.13,25.92-10.48,23.33-28.09,0,0-.64-1.23-6.31-6.24,0,0,6.56,28.45-21.15,31.72,0,0-3.65,1.7-5.16,10.92Z" fill="#e0a780"/><path d="M268.71,273.68l2.67,3.73s-18.7,12.45-29.95-6.17C241.43,271.24,256.41,285.4,268.71,273.68Z" fill="#e0a780"/><path d="M217.24,365.13s3.82-22,6.59-30.53c0,0,0,21.44,1.2,24.22,0,0,24.81-10.32,28.38-22a51.22,51.22,0,0,0,1.19-12.51s-1.59-14.69,13.89-18.46c0,0,11.91-7.74,16.48.2l20.84,23.82s5.76,3,8.54-5c0,0-3,18.26,12.5,19.85,0,0,16.87,7.93,22.83,29.57l2.14,23.15-120-.32Z" opacity="0.2"/><ellipse cx="228.2" cy="260.66" rx="6.75" ry="8.04" transform="translate(-79.14 100.78) rotate(-21.32)" fill="#e4b390"/><path d="M281.2,337.78s3.16,7.9,11,8.84a6.34,6.34,0,0,1,3.32,1.41,19.07,19.07,0,0,1,5.56,6.82s6.15-2.19,11.71-12.31L294.6,325.27l-15.39,9.93Z" fill="#e4b390"/><path d="M284.81,342.94a14.17,14.17,0,0,1-3.61-5.16l-2-2.58,15.39-9.93,2.66,2.62s.38,5.61-5.87,8.53a7.66,7.66,0,0,0-2.67,2c-1.23,1.45-2.08,3.56,1.38,5l.23.09c6.15,2.39,6.35,2.39,10.12,7.35,0,0,8.18-3.22,9.65-10.84l2.66,2.5s-5.16,9.93-11.71,12.31c0,0-3.46-7.13-8.88-8.23A14,14,0,0,1,284.81,342.94Z" fill="#e0a780"/><path d="M249.46,349.5l5.38-6.21a14.35,14.35,0,0,0,4.12-8.48l1.93-16.39a7.88,7.88,0,0,1,3.81-5.85l10.81-6.41a4.34,4.34,0,0,1,5.3.67l2.57,2.56s7.74.8,7.54,7.55a5.69,5.69,0,0,1,2.78,7.14s3,3.38-2.58,6.55c0,0-9.55,4.15-11.31,10.21a11.59,11.59,0,0,1-1,2.53,28.7,28.7,0,0,1-8.7,9.49l-8.4,8.3Z" fill="#e4b390"/><path d="M283.38,309.39c-2.26,1.55-4.72,3-7.1,4.33s-4.89,2.69-7.39,3.81c2.26-1.54,4.72-3,7.1-4.33s4.9-2.68,7.39-3.81Z" fill="#e0a780"/><path d="M290.92,316.94c-2.27,1.29-4.74,2.45-7.12,3.54s-4.89,2.15-7.37,3c2.28-1.3,4.74-2.46,7.13-3.55s4.89-2.15,7.36-3Z" fill="#e0a780"/><path d="M293.7,324.08a59.73,59.73,0,0,1-5.74,2.66,60.43,60.43,0,0,1-6,2.11,57.57,57.57,0,0,1,5.75-2.66,59.35,59.35,0,0,1,6-2.11Z" fill="#e0a780"/><path d="M249.45,349.46l13.22,12.69a.84.84,0,0,1,0,1.24l-5.67,5s-11.19-6.05-11.11-15.69l2.33-3.1A.84.84,0,0,1,249.45,349.46Z" fill="#cfb6fa"/><path d="M300.77,353.76c1.13.72,2.38,2.19,12-11.22,0,0,2.18-4.37,5.95,1.79l-17.86,18.46A11.16,11.16,0,0,1,299.38,352C299.45,351.79,300.6,353.65,300.77,353.76Z" fill="#cfb6fa"/><path d="M345.91,370.33c-14.69-25-27.2-26-27.2-26l-18.78,17.73s-2.65,3.31,3.1,8.07L327.49,398l5.46-.15Z" fill="#625958"/><polygon points="264.37 398.17 264.37 392.16 337.76 392.07 335.18 398.23 264.37 398.17" fill="#68c39f"/><path d="M202,379.66a37.18,37.18,0,0,1,4.53-6.32,34,34,0,0,1,13.74-9.28,85,85,0,0,0,18.65-10.4c4.56-4.37,7-1,7-1s.77,8.53,11.11,15.69c0,0,1.59,5.16-7.34,11.51L231.7,397" fill="#625958"/><polygon points="332.95 397.81 370.72 309.39 475.12 309.39 475.12 311.18 375.28 311.18 339.31 398.17 332.95 397.81" fill="#68c39f"/><polygon points="332.95 397.81 370.72 309.39 475.12 309.39 475.12 311.18 375.28 311.18 339.31 398.17 332.95 397.81" opacity="0.2"/><polygon points="438.79 397.63 339.36 398.12 375.28 311.18 475.12 311.18 438.79 397.63" fill="#68c39f"/><ellipse cx="411.81" cy="356.44" rx="9.92" ry="6.35" fill="#fff" opacity="0.4"/><path d="M537.47,615.27c1.59,3.78-1.78,6.36-1.78,6.36l-20.85,14.29c-12.5,7.34-15.28-1-15.28-1,8.83-3.95,16.29-12,19-15.18a4.08,4.08,0,0,0,1-2.92l-1.89-32.72,21.24-2.78c-1,6.35-3.17,18.46-3.17,18.46C533.3,610.31,537.47,615.27,537.47,615.27Z" fill="#e4b390"/><path d="M540.75,634.88a4.53,4.53,0,0,1-2.37,3.85L526,645.45c-25,11.88-42.51,3.22-45.12,1.78a1.53,1.53,0,0,1-.6-.61c-3.48-6.18,19.32-11.69,19.32-11.69s2.78,8.33,15.28,1l20.85-14.29s3.37-2.58,1.78-6.36C540.89,615.9,540.9,629.13,540.75,634.88Z" fill="#cfb6fa"/><path d="M595.23,619.44c1.59,3.77-3,6-3,6l-20.85,14.29c-12.5,7.34-15.28-1-15.28-1,8.83-4,18.79-15.86,20.84-19.46,4.77-8.33,5-18.39,5-19.45l-1-17.46,19.45.39c-1,6.35-3.77,21.84-3.77,21.84C594.24,615.08,595.23,619.44,595.23,619.44Z" fill="#e4b390"/><path d="M597.32,638.65A4.52,4.52,0,0,1,595,642.5l-12.42,6.72c-25,11.88-42.51,3.22-45.12,1.78a1.62,1.62,0,0,1-.61-.61c-3.47-6.18,19.33-11.69,19.33-11.69s2.78,8.33,15.28,1l20.85-14.29s4.56-2.19,3-6C598.65,620.06,597.47,632.9,597.32,638.65Z" fill="#cfb6fa"/><path d="M573.58,270.09l-72.45,23v0l0,0,0,.05a0,0,0,0,0,0,0l0,.07c2.91,7.66,3.89,25,3.89,25l.07,4,.52,27.14a39.21,39.21,0,0,0-2.61,5.06c-4.81,10.69-11.28,30.67-11.28,30.67,0,12.5-13.7,13.3-13.7,13.3-17.27,3-14.61-1-14.61-1-29.1,2.19-25.28-3.78-25.28-3.78,6.94,0,25.2-7.74,25.2-7.74,16.08-5.95,18.66-12.11,18.66-12.11,4.77-6.75,11.91-58.15,11.91-58.15l1.7-85.18A10.75,10.75,0,0,1,506.48,220a25.57,25.57,0,0,1,6.16.84l-.27-3.84,14.18-27c3.78,1.34,5.1-.68,5.1-.68,2.74,24.48,20.69,32.68,20.69,32.68l27,1Z" fill="#e4b390"/><path d="M512.37,217c-12,3.33-25.73-8.23-30.6-25.83-2.52-9.09-2.19-18,.37-25,2.4-6.52,6.76-11.32,12.58-12.93,12-3.33,25.72,8.24,30.6,25.84S524.4,213.7,512.37,217Z" fill="#e4b390"/><path d="M512.37,217l.27,3.84s10.9,1.26,12.3-16.64C524.94,204.23,521.63,214.59,512.37,217Z" fill="#e0a780"/><path d="M640.49,560.29s-6.4,4.16-14.31,13.3c-15.26,17.6-46.85,14.09-46.85,14.09l-51.8-.4c-16.88,1-44.66-18.26-44.66-18.26,7.14-30,19.65-131.8,19.65-131.8l3-82,.21-5.74c.4-44.66-4.56-56.37-4.56-56.37-1.79-4.77-1.19-37.32-1.19-37.32-2.95-27.48.66-33.87.74-34h0c2.73-2.46,7-1.67,7-1.67-4.73,1.24-5.78,13.65-5.78,13.65a50.75,50.75,0,0,0,5.16,26l46.07,6s-6.8-34.4,12.88-43.1l9,.3S554.54,229,557.52,256c0,0,0,6.63,1.33,10.54a4.21,4.21,0,0,0,3.81,2.83l12.72.52L597,325.48l13.89,60.14s16.88,53.59,20.25,98.85Z" fill="#cfb6fa"/><path d="M482.49,386.22c-3.52,1.56-7.07,3-10.55,4.65-2.3,1.11-7,3.21-8.3,5.32a1.5,1.5,0,0,0-.15,1.34,1.56,1.56,0,0,1-.05-1.44c2-4.3,14.41-8.73,19.05-9.87Z" fill="#e0a780"/><path d="M553.35,420.56c11.69,31.12,12.9,66.28,5.56,98.58A178.72,178.72,0,0,1,545,558c-1.72,3.42-3.64,7-5.56,10.33-.74,1.32-1.76,2.94-2.52,4.24,1.14-2,2.51-4.43,3.6-6.47,1.53-2.84,3.06-5.9,4.44-8.81a184.46,184.46,0,0,0,17.83-78.65c-.08-19.67-2.75-39.54-9.4-58.11Z" opacity="0.2"/><path d="M588.09,516.82c.92,6.74-.06,13.64-1.85,20.16a72,72,0,0,1-13.31,25.41c-1,1.27-2.22,2.65-3.3,3.86,1.22-1.58,2.94-3.81,4-5.42a80.39,80.39,0,0,0,13.1-28.94,54.59,54.59,0,0,0,1.32-15.07Z" opacity="0.2"/><path d="M505.69,349.49a39.21,39.21,0,0,0-2.61,5.06l-.34-.09s-.2-37.52-2.39-48.83c0,0-2.38-19.65-3.17-33.55,0,0-2.51-44.41,3.5-50.29-.08.14-3.69,6.53-.74,34,0,0-.6,32.55,1.19,37.32v0l0,0,0,.05a0,0,0,0,0,0,0l0,.07c.46,1.28,2.87,8.73,4,29C505.57,329.63,505.79,338.58,505.69,349.49Z" fill="#e0a780"/><path d="M562.66,269.38l12.72.52L597,325.48l1.8,8.43c-9.12.89-93.72-15.58-93.72-15.58-.22-10.93-4-25.21-4-25.21l-.58-3.92,20.05.95c-1.79-15.29,4.57-16.28,4.57-16.28,6.74-1,5.75,4.76,5.75,4.76.6,6.16,3.38,8.34,3.38,8.34,8.13,8.34,19.85,8.14,19.85,8.14,8.93,1.79,10.71-3.18,10.71-3.18,2.58-9.13-6-25.38-6-25.38A5.42,5.42,0,0,0,562.66,269.38Z" opacity="0.2"/><path d="M480.19,174.05s4.48-8.56,11.63-4.59c0,0,4,6.36,19.65,9.13,0,0,4.72.19,8.71,11.91a38,38,0,0,0-.77-17.07L504.13,158s-14.57-2.63-20.49,5C483.64,163,481.66,164.94,480.19,174.05Z" fill="#e0a780"/><path d="M495,150.8s-16.47-10.12-25.6,17.07c0,0-19.65,70.27-7.74,89.52,0,0,8,10.33,33.3,7.22l.75-34s.48-14.07,17-9.7l-.27-3.84s-14,5.55-26.73-15.85c0,0-11.34-20.25-2-38.19a12.31,12.31,0,0,1,13.71,1.51S506.29,175,515.62,176c0,0,4.56,3,4.56,14.49l1.79-.2s-2.78-14.09,6.45-14.89l3.23,14s.93,14.77,10.61,24.42l.75,22.95,8.93-9.33s-2.38-64.91-34.93-78.8c0,0,28.58,6.74,37.51,62.12,0,0-2.78-57.56-42.68-64.9C511.84,145.84,500.73,143.65,495,150.8Z" fill="#4a4745"/><path d="M512.64,220.87c-17.29-3.78-17,9.7-17,9.7L495,261.85a45.23,45.23,0,0,1-11.24.26A16.64,16.64,0,0,1,469,249.19c-3.32-14.74-.38-37.65-.38-37.65,2-44.86,13.29-45.73,13.29-45.73l.25.42c-2.56,7-2.89,15.88-.37,25,4.87,17.6,18.57,29.16,30.6,25.83Z" opacity="0.2"/><ellipse cx="528.42" cy="182.96" rx="6.45" ry="7.54" fill="#e4b390"/><ellipse cx="527.85" cy="183.36" rx="2.28" ry="2.58" fill="#e0a780"/><ellipse cx="228.2" cy="260.66" rx="2.28" ry="2.58" fill="#e0a780"/><path d="M575.07,222.93S554.74,229,557.52,256c0,0-.23,13.44,5.14,13.37l12.72.52,4.37,31.76-36.52.59s-5.36,1.2-4.57-4a8,8,0,0,0-4.76-7.93s-5.76-1.79-4.57-8.94c0,0,1.19-5.55-3-5.55,0,0-3.58-.4-2.78,5L524,296.3s-42.87-3.57-38.7,4c0,0-1.79,5.36,24.81,7.34,0,0,15.88,4.77,39.3,9.53l31.56,6.15s26.2,8.54,23.22-17.46c0,0-2.38-34.94-12.3-65.7C591.86,240.13,587.26,218.24,575.07,222.93Z" fill="#e4b390"/><path d="M579.75,301.66a14.76,14.76,0,0,1,10.48,8.42,13.17,13.17,0,0,1,1,4.48,19.12,19.12,0,0,0-2.75-6.12,20.39,20.39,0,0,0-8.76-6.78Z" fill="#e0a780"/><path d="M571.61,254.22a35.21,35.21,0,0,1,2.63,7.66,44.41,44.41,0,0,1,1.14,8c-.19-.65-.35-1.3-.52-2-1-4.24-2.22-9.47-3.25-13.72Z" fill="#e0a780"/><path d="M431.35,71.46a8,8,0,0,1,.21-2.09,3.82,3.82,0,0,1,.68-1.33A4.73,4.73,0,0,1,434,66.57a5.65,5.65,0,0,1,2.4-.48,5.35,5.35,0,0,1,2.34.51,5,5,0,0,1,1.86,1.48,3.4,3.4,0,0,1,.65,1.35,8.34,8.34,0,0,1,.21,2.07v4.3a8.06,8.06,0,0,1-.21,2.1,3.76,3.76,0,0,1-.69,1.35,4.74,4.74,0,0,1-1.78,1.45,5.65,5.65,0,0,1-2.4.47,5.39,5.39,0,0,1-2.35-.5,5.26,5.26,0,0,1-1.86-1.48,3.54,3.54,0,0,1-.65-1.35,8.32,8.32,0,0,1-.2-2.06Zm2.84,0V75.8a3.34,3.34,0,0,0,.54,2.1,2,2,0,0,0,1.68.68,2,2,0,0,0,1.69-.69,3.55,3.55,0,0,0,.55-2.17V71.23a5.15,5.15,0,0,0-.06-.92,1.63,1.63,0,0,0-.18-.54,2.17,2.17,0,0,0-.82-.8,2.38,2.38,0,0,0-1.16-.29,2,2,0,0,0-1.68.69A3.23,3.23,0,0,0,434.19,71.44Z" fill="#4a4745"/><path d="M451.92,66.38v2.51h-5l-.44,2.49a4.06,4.06,0,0,1,.94-.39,4.44,4.44,0,0,1,1.05-.13,4.51,4.51,0,0,1,3.41,1.5A5.05,5.05,0,0,1,453.3,76a5.12,5.12,0,0,1-.33,1.83,5.31,5.31,0,0,1-1,1.6,4.89,4.89,0,0,1-3.87,1.8,4.86,4.86,0,0,1-3.48-1.34,5.17,5.17,0,0,1-1.6-3.48h2.73a2.51,2.51,0,0,0,.77,1.59,2.21,2.21,0,0,0,1.56.6,2.12,2.12,0,0,0,1.66-.74,2.71,2.71,0,0,0,.66-1.88,2.47,2.47,0,0,0-.67-1.81,2.3,2.3,0,0,0-1.76-.7,2.25,2.25,0,0,0-1.13.27,1.85,1.85,0,0,0-.76.78l-2.41-.55,1.38-7.55Z" fill="#4a4745"/><ellipse cx="705.49" cy="210.35" rx="90.02" ry="90.31" fill="#cfb6fa"/><ellipse cx="705.49" cy="210.35" rx="90.02" ry="90.31" fill="#fff" opacity="0.7"/><path d="M709.76,200.83,732,173s-25.4-21.64-51,5.75Z" fill="#cfb6fa"/><path d="M707.38,202.22,680,180.58s-7.74,6.15-8.34,22.23Z" fill="#4a4745"/><path d="M707.38,205.19l-.2,34.94s-32-1-35.33-34.54Z" fill="#68c39f"/><path d="M711.15,204.4l.4,35.13s45.45-6.15,29.77-51Z" fill="#b0f4f0"/><path d="M714.72,199l32.56-17.67s-3-8.13-9.73-10.91Z" fill="#4a4745"/><polygon points="739.13 179.02 738.75 178.57 749.95 168.97 764.74 168.97 764.74 169.56 750.17 169.56 739.13 179.02" fill="#fff"/><circle cx="771.49" cy="168.67" r="3.18" fill="#fff"/><circle cx="762.76" cy="208.17" r="3.18" fill="#fff"/><circle cx="661.93" cy="239.33" r="3.18" fill="#fff"/><rect x="727.82" y="207.67" width="29.77" height="0.6" fill="#fff"/><polygon points="688.49 240.43 667.48 240.43 667.48 239.83 688.16 239.83 696.01 226.87 696.52 227.18 688.49 240.43" fill="#fff"/></svg>